<?xml version="1.0" encoding="UTF-8"?>
<svg version="1.1" xmlns="http://www.w3.org/2000/svg" width="1024" height="1024">
<path d="M0 0 C337.92 0 675.84 0 1024 0 C1024 337.92 1024 675.84 1024 1024 C686.08 1024 348.16 1024 0 1024 C0 686.08 0 348.16 0 0 Z " fill="#009EDF" transform="translate(0,0)"/>
<path d="M0 0 C3.04090507 2.68794288 6.13549137 5.31200664 9.2265625 7.94189453 C14.02621104 12.04487345 18.77640181 16.19375712 23.4453125 20.44580078 C25.16271398 22.00831004 26.89290984 23.55682429 28.6328125 25.09423828 C36.95069618 32.52890582 44.55436943 40.55329537 52.11621094 48.75 C53.64384156 50.40002362 55.18396705 52.03599497 56.734375 53.66455078 C73.92421799 71.98748631 85.96884732 93.31539005 97.16894531 115.6159668 C102.62952742 126.44686432 108.77309693 136.56068598 116.1640625 146.19189453 C117.00420898 147.29114258 117.00420898 147.29114258 117.86132812 148.41259766 C121.15259138 152.64315687 124.54694387 156.483079 128.4140625 160.19189453 C140.25187038 171.56378285 158.417089 191.63578713 159.2890625 208.81689453 C158.9140625 212.69189453 158.9140625 212.69189453 157.3515625 215.75439453 C155.52674917 219.4833609 156.03829203 221.71111966 156.9140625 225.69189453 C161.39289946 225.24485467 161.39289946 225.24485467 164.9140625 222.69189453 C168.2890625 222.25439453 168.2890625 222.25439453 171.9140625 222.69189453 C180.17713992 231.22274785 182.06965319 245.67431447 184.73684692 256.93469238 C190.77079576 282.28161246 197.62634105 309.92060822 215.078125 330.20751953 C217.16521778 333.03175572 217.53435576 334.80862394 218.0390625 338.25439453 C219.29095186 344.39754562 221.60755191 349.15021041 224.6015625 354.62939453 C229.15604703 363.1475025 231.99180445 371.83069585 234.4140625 381.12939453 C234.90265747 382.99422485 234.90265747 382.99422485 235.40112305 384.89672852 C238.75225305 398.26297531 240.3558227 411.19307799 240.3515625 424.94189453 C240.35263 425.68012451 240.35369751 426.41835449 240.35479736 427.17895508 C240.32592275 441.11826607 238.60881079 454.21605908 234.9140625 467.69189453 C234.69476074 468.50464844 234.47545898 469.31740234 234.24951172 470.15478516 C222.6520822 511.67966389 194.48223656 544.81002147 157.4140625 566.21533203 C128.34102151 582.48301997 96.5817854 592.8244509 65.00286865 603.01452637 C62.90103788 603.69611822 60.80335522 604.38957787 58.70556641 605.08349609 C44.87021217 609.61172675 32.17678003 611.02241049 17.68798828 610.95263672 C15.05087136 610.94194242 12.41443971 610.9525711 9.77734375 610.96533203 C-0.03647871 610.97426322 -9.41469156 610.49762628 -19.0859375 608.69189453 C-20.00584473 608.52028809 -20.92575195 608.34868164 -21.87353516 608.171875 C-37.48015493 605.04588103 -53.16381057 600.78172203 -65.0859375 589.69189453 C-65.89289063 588.96357422 -66.69984375 588.23525391 -67.53125 587.48486328 C-90.18403121 566.04438687 -99.64474919 535.06402225 -107.0859375 505.69189453 C-107.32441406 504.75152344 -107.56289063 503.81115234 -107.80859375 502.84228516 C-111.80446675 486.71037502 -114.07275445 470.32879998 -115.85049438 453.82107544 C-116.00915362 452.38627361 -116.17630711 450.95238874 -116.35140991 449.51950073 C-118.99128519 427.79892305 -118.46663432 405.85058998 -118.54223633 384.00708008 C-118.66125896 352.73361759 -120.35407855 322.30254312 -125.90234375 291.46142578 C-130.70833571 264.53770356 -128.21948796 247.67664069 -116.19287109 223.3046875 C-112.85699247 216.49559058 -110.08698388 209.65274054 -107.58935547 202.49975586 C-105.37913817 196.25171862 -102.70098702 190.31537306 -99.74926758 184.38378906 C-93.83465647 172.37483695 -93.69808213 161.22755276 -97.81469727 148.6574707 C-102.0338689 136.69664669 -107.71429219 125.4811554 -119.2734375 119.44189453 C-125.89414149 115.88369054 -125.89414149 115.88369054 -128.0859375 113.69189453 C-127.55022321 110.15618025 -127.55022321 110.15618025 -126.0859375 108.69189453 C-116.15140611 109.32601356 -108.33542007 113.87324776 -100.46435547 119.60595703 C-95.46454996 123.24663674 -91.2833274 124.51821318 -85.0859375 123.69189453 C-77.4298889 119.86387023 -72.82673257 113.44024053 -69.9609375 105.54736328 C-67.55380349 97.69193936 -66.03331137 90.22631891 -66.1484375 82.00439453 C-65.71694817 72.500842 -59.7252286 65.18748803 -54.39868164 57.66796875 C-52.11436948 54.22939284 -51.04330139 52.47355654 -51.2734375 48.25439453 C-51.85658069 44.73870756 -51.85658069 44.73870756 -53.6484375 42.31689453 C-55.22079846 39.44562669 -55.18231955 38.42673937 -55.0234375 35.25439453 C-54.86883981 30.60100407 -55.99488769 28.28419567 -59.0859375 24.69189453 C-59.9521875 24.05251953 -60.8184375 23.41314453 -61.7109375 22.75439453 C-64.81525404 20.0585407 -65.14049082 17.61913459 -66.0859375 13.69189453 C-68.07421831 11.26093938 -68.07421831 11.26093938 -71.97265625 11.46142578 C-73.57297577 11.46542325 -75.17329577 11.48020782 -76.7734375 11.50439453 C-77.95969727 11.50536133 -77.95969727 11.50536133 -79.16992188 11.50634766 C-83.90189096 11.54151506 -88.39999338 11.98323475 -93.0859375 12.69189453 C-95.29179515 12.82558287 -97.50125894 12.91025236 -99.7109375 12.94189453 C-101.33902344 12.98056641 -101.33902344 12.98056641 -103 13.02001953 C-106.53676687 12.64395824 -108.3518465 11.9620784 -111.0859375 9.69189453 C-112.15625 7.30517578 -112.15625 7.30517578 -112.0859375 4.69189453 C-102.73231986 -9.02525286 -85.652873 -16.02064206 -69.9609375 -18.99560547 C-67.33917832 -19.45917782 -64.71522836 -19.88741893 -62.0859375 -20.30810547 C-61.27382813 -20.44216797 -60.46171875 -20.57623047 -59.625 -20.71435547 C-34.41334151 -24.19182561 -18.50458287 -16.47713237 0 0 Z " fill="#FEC41A" transform="translate(442.0859375,150.30810546875)"/>
<path d="M0 0 C16.2762753 -1.15343683 30.28063415 6.14549947 42.43359375 16.53515625 C54.46789485 28.09321408 60.92882272 43.66676866 63 60 C63.00497902 61.9791604 63.00545975 63.95834086 63 65.9375 C63.24278957 69.56855288 63.66975389 70.67200429 66.29296875 73.27734375 C69.12486428 75.32960812 72.0100931 77.18755292 75 79 C101.45739987 98.5784759 112.1581035 136.19567514 117 167 C118.39088402 177.29800183 119.23450692 187.64071047 120 198 C120.05220703 198.68261902 120.10441406 199.36523804 120.15820312 200.06854248 C121.74070332 220.79062553 122.18255703 241.47013186 122.1875 262.25 C122.18899551 263.89721039 122.18899551 263.89721039 122.19052124 265.57769775 C122.1816391 351.8006304 122.1816391 351.8006304 99 376 C91.95501215 382.31784021 83.92801905 385.24879453 75 388 C74.32485352 388.21398437 73.64970703 388.42796875 72.95410156 388.6484375 C70.82730996 389.32015988 68.696332 389.97600943 66.5625 390.625 C65.93206787 390.81916504 65.30163574 391.01333008 64.65209961 391.21337891 C52.83267832 394.68370582 40.67958018 396.53946073 28.4375 397.6875 C27.76857727 397.75037201 27.09965454 397.81324402 26.41046143 397.87802124 C-11.61891263 401.35203436 -59.9647699 403.80880982 -95 387 C-95.93328125 386.57203125 -96.8665625 386.1440625 -97.828125 385.703125 C-103.01330018 383.12502114 -107.01589391 380.20368112 -111.1875 376.1875 C-115.44339601 372.12560495 -119.62722479 369.31523028 -124.8125 366.5625 C-144.40165303 356.0323806 -166.92305592 337.15388816 -177 317 C-178.3801016 320.63184633 -179.74738259 324.25854511 -181.00048828 327.93652344 C-184.32536204 337.6200928 -188.38625085 346.84366133 -192.6875 356.125 C-193.40658205 357.68505558 -194.12565751 359.24511421 -194.84472656 360.80517578 C-203.40518224 379.32923823 -212.3657345 397.55623629 -223 415 C-223.53744843 416.0232135 -224.07489685 417.046427 -224.62863159 418.10064697 C-227 421 -227 421 -230.32830811 421.7215271 C-231.66511666 421.73884829 -233.00260514 421.72311532 -234.33886719 421.68115234 C-235.43702003 421.68246658 -235.43702003 421.68246658 -236.55735779 421.68380737 C-238.97162468 421.67963473 -241.38309516 421.63300597 -243.796875 421.5859375 C-245.47266115 421.57474401 -247.14846697 421.56620454 -248.82427979 421.56021118 C-253.23067633 421.53732435 -257.6358823 421.4784038 -262.04180908 421.4119873 C-266.53942763 421.35056077 -271.03723896 421.32319547 -275.53515625 421.29296875 C-284.35729335 421.22865927 -293.1785476 421.12628256 -302 421 C-295.29377414 389.91632493 -284.39282383 359.46887828 -273.40283203 329.67553711 C-271.2380211 323.79467126 -269.10848822 317.90127176 -267 312 C-266.67273926 311.08492676 -266.34547852 310.16985352 -266.00830078 309.22705078 C-260.64117134 293.7745382 -258.59921381 277.49147047 -256.12120056 261.38406372 C-255.98581375 260.50451019 -255.85042694 259.62495667 -255.7109375 258.71875 C-255.57679947 257.84701141 -255.44266144 256.97527283 -255.30445862 256.07711792 C-253.78083884 246.33861784 -251.9056715 236.66983733 -250 227 C-246.51510755 227.61345275 -243.39302415 228.5186213 -240.10546875 229.8203125 C-239.16251953 230.18737305 -238.21957031 230.55443359 -237.24804688 230.93261719 C-236.23806641 231.32610352 -235.22808594 231.71958984 -234.1875 232.125 C-215.03873139 239.4178289 -195.70261568 244.56368987 -175.60595703 248.47900391 C-171.72230806 249.25544263 -167.86242451 250.12451711 -164 251 C-164.14235457 252.72945653 -164.28904382 254.45855654 -164.4375 256.1875 C-164.51871094 257.15042969 -164.59992188 258.11335938 -164.68359375 259.10546875 C-165 262 -165 262 -165.53515625 264.42578125 C-167.27611092 274.06686636 -163.13588757 280.27868566 -158 288 C-148.37368519 301.83806926 -137.4515668 314.19682622 -123 323 C-123.01571045 321.77095947 -123.01571045 321.77095947 -123.03173828 320.51708984 C-124.7544435 161.70111345 -124.7544435 161.70111345 -97 100 C-95.60908188 96.931231 -95.60908188 96.931231 -97.37109375 93.77734375 C-98.04586352 92.48994298 -98.73565056 91.21034026 -99.4375 89.9375 C-99.98676147 88.92876831 -99.98676147 88.92876831 -100.54711914 87.8996582 C-103.79945469 82.08082537 -107.59453494 77.00353011 -112 72 C-112.66386719 71.19304687 -113.32773437 70.38609375 -114.01171875 69.5546875 C-129.45340306 51.34434629 -148.93577874 41.74641161 -172 37 C-172.33 35.35 -172.66 33.7 -173 32 C-162.40741057 22.98503027 -145.39948081 13.94430788 -131.140625 14.40234375 C-105.05541267 19.36632072 -80.7964725 46.62126434 -66.58203125 67.3828125 C-65 70 -65 70 -65 72 C-64.06607422 71.54560547 -64.06607422 71.54560547 -63.11328125 71.08203125 C-36.59460535 59.06171093 -1.53422132 54.93924291 27 61 C27.66 61.33 28.32 61.66 29 62 C24.07971585 39.97449274 15.13224185 21.84908361 1.36328125 3.96875 C0 2 0 2 0 0 Z " fill="#003154" transform="translate(875,603)"/>
<path d="M0 0 C1.38668436 0.3556029 2.7734048 0.71106508 4.16015625 1.06640625 C30.38980527 8.05959824 53.24639044 21.52586185 67.29980469 45.44213867 C74 57.09749659 74 57.09749659 74 62 C74.825 62.20625 75.65 62.4125 76.5 62.625 C85.99232886 66.35412919 92.0134747 73.56175854 96.25390625 82.703125 C97.31507767 85.44415818 98.19955577 88.17230004 99 91 C99.33837891 92.18916016 99.33837891 92.18916016 99.68359375 93.40234375 C107.00235362 125.35251613 96.86040941 163.76394061 80.15576172 191.17333984 C76.22168745 197.39107192 71.60090193 203.06444744 66.9296875 208.734375 C58.86865351 218.52225732 51.56702023 228.59056945 44.56933594 239.16113281 C43.60443291 240.61659851 42.63553933 242.06942685 41.66259766 243.51953125 C40.75466531 244.87279923 39.85514775 246.23177181 38.96630859 247.59765625 C35.68617663 252.47664651 31.62653744 257.9145983 25.78613281 259.66259766 C25.19670898 259.77394043 24.60728516 259.8852832 24 260 C24.06058594 260.79059814 24.12117187 261.58119629 24.18359375 262.39575195 C24.45999071 266.03435846 24.7300325 269.67341103 25 273.3125 C25.14308594 275.17745117 25.14308594 275.17745117 25.2890625 277.08007812 C25.82728026 284.40368414 26.13660061 291.65676838 26 299 C24.98502441 298.98428955 23.97004883 298.9685791 22.92431641 298.95239258 C-14.07013071 298.4321762 -46.60121303 302.20040434 -82 314 C-82 299.48 -82 284.96 -82 270 C-86.455 271.98 -86.455 271.98 -91 274 C-102.02403852 277.49969477 -117.42338896 278.18038092 -128 273 C-136.16188321 268.47689598 -139.84156084 261.92870555 -142.6875 253.25 C-144.76167544 245.71932893 -146.18805255 237.82587919 -146 230 C-144.71416016 229.96132813 -144.71416016 229.96132813 -143.40234375 229.921875 C-136.47538721 229.57826047 -131.67006203 229.08771914 -126 225 C-126 223.68 -126 222.36 -126 221 C-129.00417161 221.41918674 -131.5707211 221.79116162 -134.3125 223.125 C-137 224 -137 224 -146 223 C-146 215.08 -146 207.16 -146 199 C-146.66 199.33 -147.32 199.66 -148 200 C-155.7260237 201.04004165 -161.52068756 199.22046957 -168 195 C-170.50743719 192.87486265 -170.94000453 192.26725256 -171.6875 188.9375 C-170.81922314 183.96464161 -168.79068613 181.84006134 -165.55859375 178.06640625 C-162.45941131 174.3521189 -159.62435357 170.49648337 -156.8125 166.5625 C-156.31395508 165.8833252 -155.81541016 165.20415039 -155.30175781 164.50439453 C-147.78758644 153.95709418 -145.39658051 145.21099005 -145.59655762 132.40966797 C-145.78288212 117.44293232 -144.20347248 104.79179762 -138 91 C-137.47397777 89.76486839 -136.94914024 88.5292312 -136.42578125 87.29296875 C-135.34222454 84.82469487 -134.22086345 82.40234421 -133 80 C-134.2684375 79.58041016 -134.2684375 79.58041016 -135.5625 79.15234375 C-147.65178365 74.879881 -155.33611325 68.69963985 -161.0703125 57.16015625 C-163.73679166 50.96451349 -164.33729483 45.79976935 -164.3125 39.125 C-164.32861328 38.26519531 -164.34472656 37.40539062 -164.36132812 36.51953125 C-164.36763233 28.21059459 -162.35531468 21.43300527 -156.59765625 15.22265625 C-155 14 -155 14 -152.125 13.875 C-145.23552124 16.35521236 -145.23552124 16.35521236 -142.9296875 17.28125 C-130.02989263 22.0860319 -118.21452887 16.43847918 -106.27563477 11.39648438 C-74.33267426 -2.02713689 -34.19252004 -9.49156911 0 0 Z " fill="#003054" transform="translate(841,298)"/>
<path d="M0 0 C0.99 1.485 0.99 1.485 2 3 C3.82768374 3.72454645 3.82768374 3.72454645 5.97265625 4.0703125 C6.7817041 4.23958252 7.59075195 4.40885254 8.42431641 4.58325195 C9.29491699 4.76202881 10.16551758 4.94080566 11.0625 5.125 C25.6211303 8.44642539 37.86437476 15.03958781 49 25 C49.82757812 25.69738281 50.65515625 26.39476562 51.5078125 27.11328125 C61.7753933 35.95219255 69.35504153 46.28863653 76 58 C76.91652344 59.52173828 76.91652344 59.52173828 77.8515625 61.07421875 C79 64 79 64 78.390625 66.359375 C77.93171875 67.23078125 77.4728125 68.1021875 77 69 C76.47968859 70.2490234 75.97603667 71.50504885 75.484375 72.765625 C75.06647705 73.8318811 75.06647705 73.8318811 74.64013672 74.91967773 C49.34454535 141.14195411 53.07373856 220.12959859 51 290 C31.77243063 282.57931969 18.39431891 261.22656027 8.328125 244.18359375 C5.73597461 237.97005679 7.20635981 231.9316384 8.5 225.5625 C8.64308594 224.83095703 8.78617188 224.09941406 8.93359375 223.34570312 C9.28321296 221.56264514 9.64077688 219.78114797 10 218 C8.95392578 217.88785156 8.95392578 217.88785156 7.88671875 217.7734375 C-20.98415361 214.17779772 -49.32470676 205.51249498 -76 194 C-76 193.34 -76 192.68 -76 192 C-76.886875 191.731875 -77.77375 191.46375 -78.6875 191.1875 C-86.26436782 188.47126437 -86.26436782 188.47126437 -88 185 C-88.54814092 177.90689287 -86.83400282 171.94982813 -84.8125 165.1875 C-84.16038121 162.93260289 -83.50934669 160.67739194 -82.859375 158.421875 C-82.53904297 157.32037109 -82.21871094 156.21886719 -81.88867188 155.08398438 C-80.72588451 151.04872888 -79.62643512 146.99979773 -78.5625 142.9375 C-78.36994629 142.2062793 -78.17739258 141.47505859 -77.97900391 140.72167969 C-76.66999529 135.70085334 -75.42493979 130.66583479 -74.1953125 125.625 C-56.17535421 51.85445818 -56.17535421 51.85445818 -31 26 C-29.93292046 24.69122051 -28.87028836 23.37880023 -27.8125 22.0625 C-20.82798356 14.03356989 -11.25554129 7.16174418 -2 2 C-1.34 2 -0.68 2 0 2 C0 1.34 0 0.68 0 0 Z " fill="#0078C1" transform="translate(701,636)"/>
<path d="M0 0 C19.305 0.495 19.305 0.495 39 1 C40.12120651 6.60603257 40.12120651 6.60603257 39.00390625 10.08203125 C38.77437256 10.8412085 38.54483887 11.60038574 38.30834961 12.38256836 C38.06221924 13.1844458 37.81608887 13.98632324 37.5625 14.8125 C33.80214479 28.12812919 33.28742642 40.04923972 39 53 C39.48597656 54.10859375 39.97195313 55.2171875 40.47265625 56.359375 C44.19810064 64.28585243 48.72342805 71.15132612 53.9609375 78.13671875 C56 81 56 81 57 84 C57.66 84 58.32 84 59 84 C59.25394531 83.28585937 59.50789062 82.57171875 59.76953125 81.8359375 C63.94178512 72.21988572 72.20422947 61.97641981 81.97265625 57.6640625 C87.59631836 55.82201518 91.77074523 56.6254038 97.0625 58.875 C103.61741172 62.42010634 107.44118366 68.0924973 110.1640625 74.91796875 C113.75576906 88.16028874 109.78201551 103.06019813 103.75 115 C98.89866358 123.3121624 93.68773722 129.13962216 84.4765625 132.390625 C80.85105934 133.28270464 77.71603689 133.27526199 74 133 C73.957279 134.66611905 73.95936168 136.33382885 74 138 C75.06104898 139.28397655 75.06104898 139.28397655 77.51171875 139.1328125 C78.55972656 139.13023437 79.60773438 139.12765625 80.6875 139.125 C81.72261719 139.12757813 82.75773438 139.13015625 83.82421875 139.1328125 C86.96086136 139.00163679 89.91809766 138.58218845 93 138 C93.6290625 138.96679688 94.258125 139.93359375 94.90625 140.9296875 C105.85379482 157.63706042 117.03312761 173.15797297 137.4375 178.375 C143.86271882 179.49880253 150.49504058 179.67432351 157 180 C157.34002182 184.4370135 157.67077776 188.87467316 158 193.3125 C158.09539062 194.55580078 158.19078125 195.79910156 158.2890625 197.08007812 C158.82728026 204.40368414 159.13660061 211.65676838 159 219 C157.98502441 218.98428955 156.97004883 218.9685791 155.92431641 218.95239258 C118.92986929 218.4321762 86.39878697 222.20040434 51 234 C51 219.48 51 204.96 51 190 C46.545 191.98 46.545 191.98 42 194 C30.97596148 197.49969477 15.57661104 198.18038092 5 193 C-3.16188321 188.47689598 -6.84156084 181.92870555 -9.6875 173.25 C-11.76167544 165.71932893 -13.18805255 157.82587919 -13 150 C-11.71416016 149.96132813 -11.71416016 149.96132813 -10.40234375 149.921875 C-3.47538721 149.57826047 1.32993797 149.08771914 7 145 C7 143.68 7 142.36 7 141 C3.99582839 141.41918674 1.4292789 141.79116162 -1.3125 143.125 C-4 144 -4 144 -13 143 C-13 135.08 -13 127.16 -13 119 C-13.99 119.495 -13.99 119.495 -15 120 C-22.7260237 121.04004165 -28.52068756 119.22046957 -35 115 C-37.50743719 112.87486265 -37.94000453 112.26725256 -38.6875 108.9375 C-37.81922314 103.96464161 -35.79068613 101.84006134 -32.55859375 98.06640625 C-29.45941131 94.3521189 -26.62435357 90.49648337 -23.8125 86.5625 C-23.31395508 85.8833252 -22.81541016 85.20415039 -22.30175781 84.50439453 C-14.78758644 73.95709418 -12.39658051 65.21099005 -12.59655762 52.40966797 C-12.84544689 32.41734349 -8.32024328 18.30453521 0 0 Z " fill="#FDC41C" transform="translate(708,378)"/>
<path d="M0 0 C10.12724105 8.65390583 16.07723236 18.34651563 20.23828125 30.9296875 C24.15018202 31.13287132 24.15018202 31.13287132 27.36328125 29.9296875 C37.04610905 27.07817677 47.88018928 29.17754198 56.97265625 33.11328125 C65.04424827 37.53761663 72.31006654 44.18037048 75.30078125 53.0546875 C75.61015625 54.3334375 75.91953125 55.6121875 76.23828125 56.9296875 C77.43324219 56.89488281 78.62820313 56.86007813 79.859375 56.82421875 C93.70462663 56.5360489 103.70380897 57.95071341 114.21875 67.78125 C120.82198056 74.8491002 124.38911865 82.94108292 124.36328125 92.6171875 C124.36585938 93.59042969 124.3684375 94.56367188 124.37109375 95.56640625 C124.23828125 97.9296875 124.23828125 97.9296875 123.23828125 98.9296875 C121.81714245 99.02805911 120.3911383 99.05707784 118.96659946 99.05832195 C118.03925859 99.0615464 117.11191772 99.06477085 116.1564756 99.068093 C115.12576044 99.0665444 114.09504527 99.0649958 113.03309631 99.06340027 C111.94742809 99.06566583 110.86175987 99.06793138 109.74319261 99.07026559 C106.07495964 99.07663786 102.40676331 99.07577417 98.73852539 99.07495117 C96.1209661 99.07794064 93.50340726 99.08134268 90.885849 99.08512878 C84.49579433 99.09345165 78.10574888 99.09618436 71.71568925 99.09674116 C66.52408057 99.09721555 61.33247495 99.09926639 56.14086723 99.10244179 C41.4371226 99.11125279 26.73338529 99.11586046 12.029638 99.11511131 C10.83946304 99.11505138 10.83946304 99.11505138 9.62524414 99.11499023 C8.43362403 99.11492891 8.43362403 99.11492891 7.21793079 99.11486635 C-5.66198776 99.11445975 -18.5418771 99.12403181 -31.42178719 99.1381286 C-44.63167556 99.15247301 -57.84154966 99.15939986 -71.05144602 99.15853482 C-78.47387936 99.15820219 -85.89628207 99.16097843 -93.31870842 99.17171288 C-100.29616413 99.18173874 -107.27355397 99.18150238 -114.2510128 99.17419624 C-116.81897831 99.17314511 -119.38694778 99.17554431 -121.95490646 99.1815567 C-125.44653224 99.18920525 -128.93792977 99.18467953 -132.42955017 99.17692566 C-133.97227684 99.184641 -133.97227684 99.184641 -135.5461697 99.19251221 C-136.47611832 99.18791342 -137.40606694 99.18331462 -138.36419582 99.17857647 C-139.17093917 99.17879384 -139.97768252 99.17901121 -140.80887264 99.17923516 C-142.76171875 98.9296875 -142.76171875 98.9296875 -144.76171875 96.9296875 C-147.72807469 88.91667406 -146.7623973 77.2232172 -143.69921875 69.4296875 C-138.42235803 58.65486854 -130.81653352 50.55067502 -119.51171875 46.0546875 C-111.1034507 43.53220709 -103.33393415 43.50098493 -94.76171875 44.9296875 C-94.81972656 44.37023437 -94.87773438 43.81078125 -94.9375 43.234375 C-95.68930646 29.87370018 -89.15102192 17.4685812 -80.69921875 7.49609375 C-59.12648708 -15.34788818 -25.2290324 -18.91285314 0 0 Z " fill="#CCF0FE" transform="translate(771.76171875,64.0703125)"/>
<path d="M0 0 C10.4929501 7.44860375 21.54305334 17.88234885 24.6953125 30.86328125 C24.79585937 31.56839844 24.89640625 32.27351563 25 33 C25.63679687 32.67773438 26.27359375 32.35546875 26.9296875 32.0234375 C36.17020522 28.94326493 48.83586598 29.84495003 57.65234375 33.7421875 C70.95334216 40.86851277 78.63481451 49.63406426 84.06225586 63.76586914 C85.06722197 67.23183791 85.24350625 70.07359774 85.23046875 73.67578125 C85.22853516 74.91521484 85.22660156 76.15464844 85.22460938 77.43164062 C85.21236328 78.71232422 85.20011719 79.99300781 85.1875 81.3125 C85.1865332 83.2625293 85.1865332 83.2625293 85.18554688 85.25195312 C85.14034598 94.85965402 85.14034598 94.85965402 84 96 C80.94301544 96.10025424 77.90854386 96.13437739 74.85107422 96.12698364 C73.39302274 96.12932363 73.39302274 96.12932363 71.90551567 96.13171089 C68.62189123 96.13572541 65.33831236 96.1325295 62.0546875 96.12939453 C59.71136447 96.13074837 57.36804165 96.13252821 55.02471924 96.13470459 C48.64061211 96.13928097 42.25652106 96.13748852 35.87241364 96.1343255 C29.88227816 96.13205826 23.8921442 96.13378434 17.90200877 96.1352527 C5.31485728 96.13810759 -7.27228693 96.13482032 -19.85943723 96.12945233 C-30.67126909 96.12498429 -41.48309021 96.12576022 -52.29492188 96.13037109 C-64.83552922 96.13571669 -77.37613019 96.1378329 -89.91673851 96.13475883 C-96.56056297 96.13317463 -103.20438143 96.13300362 -109.84820557 96.13629532 C-116.09269196 96.13917276 -122.33715797 96.13720069 -128.58164215 96.13140106 C-130.88072933 96.13007278 -133.17981821 96.13046872 -135.47890472 96.13266373 C-138.6029848 96.13537256 -141.72699844 96.13199738 -144.85107422 96.12698364 C-146.23475032 96.13032973 -146.23475032 96.13032973 -147.64637947 96.13374341 C-153.88585019 96.11414981 -153.88585019 96.11414981 -155 95 C-155.86484482 80.24774321 -154.32524522 69.00712966 -145 57 C-137.37903604 48.75248028 -127.4605957 41.79033373 -115.92797852 40.8269043 C-113.73999568 40.76864073 -111.56337641 40.7757693 -109.375 40.8125 C-108.63765625 40.81314453 -107.9003125 40.81378906 -107.140625 40.81445312 C-103.31007565 40.84534465 -99.72323357 41.08022886 -96 42 C-95.9484375 41.46375 -95.896875 40.9275 -95.84375 40.375 C-93.91134284 27.02382323 -86.61455525 15.20396926 -77 6 C-76.39929688 5.36835937 -75.79859375 4.73671875 -75.1796875 4.0859375 C-55.60097683 -15.15374788 -21.83122067 -14.46526682 0 0 Z " fill="#CDF0FE" transform="translate(251,45)"/>
<path d="M0 0 C3.48489245 0.61345275 6.60697585 1.5186213 9.89453125 2.8203125 C10.83748047 3.18737305 11.78042969 3.55443359 12.75195312 3.93261719 C14.26692383 4.52284668 14.26692383 4.52284668 15.8125 5.125 C34.96126861 12.4178289 54.29738432 17.56368987 74.39404297 21.47900391 C78.27769194 22.25544263 82.13757549 23.12451711 86 24 C85.48704074 31.03427597 84.6127629 37.80853461 83.0625 44.6875 C82.85431641 45.6252124 82.64613281 46.5629248 82.43164062 47.52905273 C80.28693548 57.01257847 77.98439737 66.45989693 75.65621948 75.89981079 C75.22422125 77.65269541 74.79425568 79.40608243 74.3664856 81.16000366 C70.26325223 97.93753074 64.56780301 113.469333 57.3125 129.125 C56.59341795 130.68505558 55.87434249 132.24511421 55.15527344 133.80517578 C46.59481776 152.32923823 37.6342655 170.55623629 27 188 C26.46255157 189.0232135 25.92510315 190.046427 25.37136841 191.10064697 C23 194 23 194 19.67169189 194.7215271 C18.33488334 194.73884829 16.99739486 194.72311532 15.66113281 194.68115234 C14.56297997 194.68246658 14.56297997 194.68246658 13.44264221 194.68380737 C11.02837532 194.67963473 8.61690484 194.63300597 6.203125 194.5859375 C4.52733885 194.57474401 2.85153303 194.56620454 1.17572021 194.56021118 C-3.23067633 194.53732435 -7.6358823 194.4784038 -12.04180908 194.4119873 C-16.53942763 194.35056077 -21.03723896 194.32319547 -25.53515625 194.29296875 C-34.35729335 194.22865927 -43.1785476 194.12628256 -52 194 C-45.29377414 162.91632493 -34.39282383 132.46887828 -23.40283203 102.67553711 C-21.2380211 96.79467126 -19.10848822 90.90127176 -17 85 C-16.67273926 84.08492676 -16.34547852 83.16985352 -16.00830078 82.22705078 C-10.64117134 66.7745382 -8.59921381 50.49147047 -6.12120056 34.38406372 C-5.98581375 33.50451019 -5.85042694 32.62495667 -5.7109375 31.71875 C-5.50973045 30.41114212 -5.50973045 30.41114212 -5.30445862 29.07711792 C-3.78083884 19.33861784 -1.9056715 9.66983733 0 0 Z " fill="#FDC41C" transform="translate(625,830)"/>
<path d="M0 0 C2.81376432 2.72059331 5.28744636 5.53562277 7.6875 8.625 C11.91903001 13.9553251 16.35366327 19.02812375 21 24 C21.87140625 24.94875 22.7428125 25.8975 23.640625 26.875 C33.98684484 37.86020871 46.19376993 45.96877806 59.3203125 53.296875 C62.15923242 55.10120312 64.39331392 57.10556325 66.8125 59.4375 C77.24764609 69.19137063 90.31902688 73.77458574 104 77 C105.25425781 77.29648437 106.50851562 77.59296875 107.80078125 77.8984375 C149.64811712 86.39407755 197.59062694 84.19554978 239.21484375 75.671875 C240.46394531 75.45015625 241.71304687 75.2284375 243 75 C250.1063352 82.1063352 245.30854754 94.97393928 246 105 C148.65 105 51.3 105 -49 105 C-43.49635036 93.99270073 -43.49635036 93.99270073 -40.4375 88.8125 C-24.38527984 60.98684795 -8.7891217 31.00096064 0 0 Z " fill="#0078C1" transform="translate(697,919)"/>
<path d="M0 0 C0 0.66 0 1.32 0 2 C-0.75023437 2.268125 -1.50046875 2.53625 -2.2734375 2.8125 C-15.7568178 7.97490253 -26.83072885 17.34702302 -34 30 C-33.12601563 29.51080078 -33.12601563 29.51080078 -32.234375 29.01171875 C-22.25970495 23.69503141 -13.04561708 21.74141081 -1.8125 21.5625 C-0.98121582 21.54018311 -0.14993164 21.51786621 0.70654297 21.49487305 C9.59790476 21.52750352 16.61871983 24.85423034 23.07421875 30.8828125 C28.78219516 37.15811314 32.83778147 43.40241807 33 52 C30.8168104 50.94378096 28.71449062 49.83141798 26.625 48.59765625 C20.62421341 45.08826766 15.30012789 43.08545708 8.43359375 41.93359375 C6 41 6 41 4.79296875 38.5234375 C4.53128906 37.69070313 4.26960937 36.85796875 4 36 C1.98682781 34.19651922 1.98682781 34.19651922 0 33 C0.495 33.78375 0.99 34.5675 1.5 35.375 C3 38 3 38 3 40 C2.09290283 40.029729 2.09290283 40.029729 1.16748047 40.06005859 C-1.59708509 40.15586299 -4.36095174 40.26531555 -7.125 40.375 C-8.07632813 40.4059375 -9.02765625 40.436875 -10.0078125 40.46875 C-15.01710348 40.67747046 -19.30366613 41.05505365 -24 43 C-23.02160156 43.27972656 -22.04320312 43.55945313 -21.03515625 43.84765625 C-9.67466072 47.25304927 -1.79440864 51.43888117 4.80859375 61.69140625 C7.62015547 67.13938323 8.29517789 71.99286731 8.1875 78.0625 C8.1865332 79.10374023 8.1865332 79.10374023 8.18554688 80.16601562 C8.15367563 83.89495089 7.88337649 87.37462288 7 91 C6.34 91 5.68 91 5 91 C4.6596875 90.31035156 4.319375 89.62070312 3.96875 88.91015625 C1.30770917 83.75085103 -1.29223384 79.46791325 -5.375 75.3125 C-8.21093548 72.32560218 -9.51464594 70.61159399 -9.5 66.4375 C-9.335 65.303125 -9.17 64.16875 -9 63 C-9.66 63 -10.32 63 -11 63 C-11.33 63.66 -11.66 64.32 -12 65 C-15.98952349 63.62993233 -18.68392731 61.79988983 -21.875 59.0625 C-25.80553121 55.82040015 -29.20305789 53.6685016 -34 52 C-33.62488281 52.66902344 -33.24976563 53.33804688 -32.86328125 54.02734375 C-19.51720873 79.07224054 -16.35507841 110.01756877 -17 138 C-16.47535156 138.12375 -15.95070313 138.2475 -15.41015625 138.375 C-3.67848912 141.49823917 8.89191609 146.86086119 18 155 C18 155.66 18 156.32 18 157 C10.0796023 162.17577006 4.04204674 163.86682628 -5.35620117 163.68115234 C-6.5379895 163.6820285 -7.71977783 163.68290466 -8.93737793 163.68380737 C-12.80660305 163.679659 -16.67405005 163.63313228 -20.54296875 163.5859375 C-23.24008714 163.57138004 -25.93720389 163.56590467 -28.63435364 163.56021118 C-34.98437147 163.54164884 -41.33376089 163.492531 -47.68350345 163.43211424 C-54.91932368 163.36477827 -62.15517576 163.33199254 -69.39123189 163.30194163 C-84.26116988 163.23942228 -99.13052174 163.13405802 -114 163 C-108.99913861 157.80615348 -104.82750665 155.70797128 -97.5625 155.5625 C-83.62034219 154.77332126 -72.13369289 150.02112572 -59.83105469 143.90576172 C-50.77573736 139.42639808 -44.10932498 137.85096539 -34 138 C-32.80603511 126.96191641 -32.63417165 115.90421315 -32.5625 104.8125 C-32.55599426 103.84065765 -32.54948853 102.86881531 -32.54278564 101.86752319 C-32.49678182 86.8914272 -32.6635187 70.93190567 -39 57 C-39.66 56.67 -40.32 56.34 -41 56 C-41.25394531 56.67933594 -41.50789062 57.35867188 -41.76953125 58.05859375 C-42.9295476 60.83158522 -44.26157484 63.45730382 -45.66552734 66.11303711 C-49.29818868 73.0425165 -52.29632401 80.04981101 -54.875 87.4375 C-55.16076904 88.2529126 -55.44653809 89.0683252 -55.7409668 89.90844727 C-57.54075076 95.21708096 -58.8679863 100.51028307 -60 106 C-65.66025231 100.96866461 -69.48469613 94.71667448 -70.17700195 87.03637695 C-70.70995492 69.22385724 -70.70995492 69.22385724 -66 62 C-65.51789062 61.21109375 -65.03578125 60.4221875 -64.5390625 59.609375 C-62.03913435 55.6754779 -59.51376904 52.10833415 -56 49 C-65.07231852 50.26371173 -73.40369483 52.96055067 -82 56 C-82 53.69 -82 51.38 -82 49 C-85.15976323 51.64322658 -85.15976323 51.64322658 -86.29296875 55.4453125 C-87 58 -87 58 -89.3359375 59.66796875 C-90.33882812 60.16941406 -91.34171875 60.67085937 -92.375 61.1875 C-98.45315231 64.47770939 -102.97690046 68.31545094 -107.91796875 73.05859375 C-110 75 -110 75 -111 75 C-111.85026796 64.79678444 -108.15946198 55.65876625 -101.71484375 47.73828125 C-94.95732237 40.88840194 -83.59969013 34.39822582 -73.83349609 33.88647461 C-73.07117676 33.89171143 -72.30885742 33.89694824 -71.5234375 33.90234375 C-70.688125 33.90556641 -69.8528125 33.90878906 -68.9921875 33.91210938 C-68.12851562 33.92048828 -67.26484375 33.92886719 -66.375 33.9375 C-65.50359375 33.94201172 -64.6321875 33.94652344 -63.734375 33.95117188 C-62.12547439 33.95988883 -60.51658266 33.97065825 -58.90771484 33.98413086 C-57.60517755 33.99496589 -56.30258236 34 -55 34 C-64.15484841 29.04692092 -72.83908549 25.48618121 -83 23 C-82.67 22.01 -82.34 21.02 -82 20 C-81.34 19.67 -80.68 19.34 -80 19 C-83.93075644 19.57452746 -83.93075644 19.57452746 -87 22 C-89.66552777 21.84320425 -92.18083123 21.57885235 -94.8125 21.1875 C-95.52470703 21.09146484 -96.23691406 20.99542969 -96.97070312 20.89648438 C-100.67483557 20.38592403 -104.34376093 19.78296672 -108 19 C-106.54016251 15.27378496 -104.73174849 13.87523419 -101.3125 11.875 C-100.48363281 11.37742187 -99.65476562 10.87984375 -98.80078125 10.3671875 C-88.18422179 5.18476656 -75.80263114 5.80947558 -64.65234375 9.02734375 C-57.67317419 11.58671521 -52.07173708 15.70219212 -48 22 C-47.33984375 24.21484375 -47.33984375 24.21484375 -47 26 C-46.34 26 -45.68 26 -45 26 C-44.98582031 25.39414062 -44.97164062 24.78828125 -44.95703125 24.1640625 C-44.53129612 16.68493179 -42.62314415 10.07116735 -37.546875 4.3671875 C-27.35351318 -4.59224105 -12.03332683 -5.77599688 0 0 Z " fill="#CB7D00" transform="translate(603,528)"/>
<path d="M0 0 C1.11881058 -0.00817245 1.11881058 -0.00817245 2.26022339 -0.01651001 C21.09129078 -0.11903191 21.09129078 -0.11903191 26.5 3.9375 C28.28009945 6.28977427 29.66808566 8.75357363 31.1171875 11.31713867 C32.97894441 14.4937614 35.05672636 17.5180266 37.125 20.5625 C46.63205132 34.76396217 57.25 51.40691367 57.25 69.25 C55.88294922 69.0334375 55.88294922 69.0334375 54.48828125 68.8125 C26.33393021 64.77844373 -2.97402805 67.62097463 -29.78125 77.19921875 C-32.10433593 78.0214689 -34.34928674 78.7145468 -36.75 79.25 C-37.19988281 78.53457031 -37.64976562 77.81914063 -38.11328125 77.08203125 C-53.1455896 53.79550949 -73.80837182 33.83232658 -99.75 23.25 C-99.75 22.59 -99.75 21.93 -99.75 21.25 C-98.48308493 20.57591692 -97.21129251 19.91099503 -95.9375 19.25 C-95.22980469 18.87875 -94.52210938 18.5075 -93.79296875 18.125 C-91.75 17.25 -91.75 17.25 -88.75 17.25 C-88.75 15.6 -88.75 13.95 -88.75 12.25 C-87.76 13.735 -87.76 13.735 -86.75 15.25 C-86.15388916 15.03384033 -85.55777832 14.81768066 -84.94360352 14.5949707 C-69.41928393 9.03104274 -54.04198041 4.84638686 -37.75 2.25 C-36.92709473 2.11867676 -36.10418945 1.98735352 -35.25634766 1.85205078 C-23.56259537 0.10521538 -11.79839276 0.05323522 0 0 Z " fill="#0077C1" transform="translate(846.75,595.75)"/>
<path d="M0 0 C1.02262939 0.00290039 1.02262939 0.00290039 2.06591797 0.00585938 C7.67201142 0.23292762 12.77152622 1.58402622 16.8125 5.625 C19.52538723 5.41973672 19.52538723 5.41973672 22.5625 4.75 C24.63880696 4.33786872 26.72282584 3.96288264 28.8125 3.625 C29.80765625 3.45742188 30.8028125 3.28984375 31.828125 3.1171875 C36.46476395 3.90614439 38.16617156 6.93852749 40.8125 10.625 C41.23402344 11.19895508 41.65554688 11.77291016 42.08984375 12.36425781 C43.36222805 14.1397014 44.59149278 15.93887053 45.8125 17.75 C46.50037598 18.76066528 46.50037598 18.76066528 47.20214844 19.79174805 C48.74532915 22.065248 50.27998611 24.3442969 51.8125 26.625 C52.39193359 27.48657715 52.97136719 28.3481543 53.56835938 29.23583984 C57.67417197 35.349452 61.75564202 41.47879535 65.8125 47.625 C66.24208008 48.2756543 66.67166016 48.92630859 67.11425781 49.59667969 C72.8125 58.26326324 72.8125 58.26326324 72.8125 60.625 C52.30558176 61.38452887 31.83996516 61.77009002 11.31711197 61.72639394 C7.75918039 61.7199606 4.20124704 61.71954138 0.64331055 61.71836853 C-6.0350834 61.71531211 -12.71346014 61.70717913 -19.39184666 61.69701904 C-27.02001071 61.68567648 -34.64817577 61.6803027 -42.27634621 61.67532361 C-57.91340729 61.66498872 -73.55045139 61.64750491 -89.1875 61.625 C-88.71763311 60.18946377 -88.24551692 58.75466365 -87.77246094 57.32017517 C-87.50979431 56.52109206 -87.24712769 55.72200895 -86.97650146 54.8987112 C-85.98948744 52.05437573 -84.7721367 49.38903131 -83.4375 46.69140625 C-82.91663818 45.63848389 -82.39577637 44.58556152 -81.85913086 43.50073242 C-81.03167358 41.86068237 -81.03167358 41.86068237 -80.1875 40.1875 C-79.33007202 38.48074097 -79.33007202 38.48074097 -78.45532227 36.73950195 C-73.53129186 27.06386739 -68.23954453 17.64347623 -62.1875 8.625 C-61.55070312 7.64144531 -60.91390625 6.65789062 -60.2578125 5.64453125 C-58.1875 3.625 -58.1875 3.625 -55.33984375 3.25 C-54.27894531 3.37375 -53.21804688 3.4975 -52.125 3.625 C-50.97644531 3.75777344 -49.82789063 3.89054687 -48.64453125 4.02734375 C-44.59060981 4.72819119 -40.72798906 5.72380531 -36.8203125 7.00390625 C-29.77162551 8.66672707 -25.11463789 6.98765664 -18.8125 4.125 C-12.47854517 1.45606196 -6.8960969 -0.04288046 0 0 Z " fill="#CD8000" transform="translate(431.1875,336.375)"/>
<path d="M0 0 C3.01510934 1.1816761 5.774752 2.42228138 8.5625 4.0625 C13.83084123 6.78262244 19.15193677 6.73417894 25 7 C25 12.61 25 18.22 25 24 C21.10835652 25.29721449 18.10570774 25.13033993 14 25 C13.34 24.67 12.68 24.34 12 24 C10.00039988 23.960008 7.99952758 23.95653201 6 24 C5.31746615 37.15773593 7.34767828 45.98922197 16 56 C16.76957031 56.91072266 16.76957031 56.91072266 17.5546875 57.83984375 C21.00178581 61.60856128 24.14431115 63.59717523 28.8125 65.6875 C33.71317773 68.15450783 33.71317773 68.15450783 34.97265625 71.8671875 C35.23842031 73.97781856 35.45941174 76.09462532 35.6328125 78.21484375 C35.81030881 81.25631457 35.81030881 81.25631457 38.25 84.125 C44.0981517 88.11237616 50.11614278 88.48303049 57 89 C57.33 90.65 57.66 92.3 58 94 C55.42483378 96.63746863 53.45668604 97.21887499 49.890625 97.29296875 C48.34347769 97.27313353 46.79646604 97.2375101 45.25 97.1875 C44.06083984 97.16719727 44.06083984 97.16719727 42.84765625 97.14648438 C40.89814436 97.11125223 38.94898374 97.05744821 37 97 C37.47633009 100.72953469 37.95656252 104.45855688 38.4375 108.1875 C38.57220703 109.24259766 38.70691406 110.29769531 38.84570312 111.38476562 C39.04389648 112.91713867 39.04389648 112.91713867 39.24609375 114.48046875 C39.36654053 115.41785889 39.4869873 116.35524902 39.61108398 117.32104492 C39.98614271 119.90454734 40.46320936 122.44568678 41 125 C42.14339844 125.06058594 43.28679687 125.12117188 44.46484375 125.18359375 C45.95574305 125.26798428 47.44662775 125.35263302 48.9375 125.4375 C49.69224609 125.47681641 50.44699219 125.51613281 51.22460938 125.55664062 C56.88671875 125.88671875 56.88671875 125.88671875 58 127 C58.14115161 129.67058851 58.04247107 132.32432238 58 135 C53.16176714 137.51980954 48.53954756 137.28217436 43.22436523 137.25878906 C42.24494965 137.2622937 41.26553406 137.26579834 40.25643921 137.26940918 C37.02375166 137.27820126 33.79128347 137.27238662 30.55859375 137.265625 C28.31087705 137.26697226 26.06316064 137.26891331 23.81544495 137.27142334 C19.10715965 137.27437109 14.39895029 137.27008769 9.69067383 137.26074219 C3.65230747 137.24934136 -2.38588121 137.2559134 -8.42424107 137.26788712 C-13.06444135 137.27510948 -17.70459941 137.27281615 -22.34480095 137.26763153 C-24.57157347 137.26629642 -26.79834981 137.26793791 -29.02511787 137.27259064 C-32.13476871 137.27766268 -35.24413049 137.26993618 -38.35375977 137.25878906 C-39.73704216 137.26486176 -39.73704216 137.26486176 -41.14826965 137.27105713 C-42.42042328 137.26259766 -42.42042328 137.26259766 -43.71827698 137.25396729 C-44.82021818 137.25283621 -44.82021818 137.25283621 -45.94442081 137.25168228 C-48.30794774 136.9622953 -49.94172669 136.16925157 -52 135 C-52.09765625 128.84765625 -52.09765625 128.84765625 -52 127 C-51 126 -51 126 -48.3828125 125.9375 C-46.21614391 125.97906678 -44.04947723 126.02073297 -41.8828125 126.0625 C-38.92899733 126.14054947 -38.92899733 126.14054947 -36 125 C-34.35 115.76 -32.7 106.52 -31 97 C-32.98 97.495 -32.98 97.495 -35 98 C-36.97587236 98.14132787 -38.95680649 98.22002734 -40.9375 98.25 C-41.95714844 98.27578125 -42.97679687 98.3015625 -44.02734375 98.328125 C-47.38813891 97.95715681 -49.25483679 96.92110869 -52 95 C-51.67 93.35 -51.34 91.7 -51 90 C-50.20335937 89.90203125 -49.40671875 89.8040625 -48.5859375 89.703125 C-40.0629785 88.52262573 -40.0629785 88.52262573 -33 84 C-31.02469066 80.87408959 -30.97379848 78.87715018 -31.1875 75.25 C-30.98046875 72.58203125 -30.98046875 72.58203125 -30 70 C-27.00014641 67.5956729 -23.78623339 65.81972217 -20.4296875 63.98046875 C-11.90450598 59.05761336 -4.11514156 50.471289 -1 41 C0.22313255 33.99901522 -0.01786547 26.83160394 -0.0625 19.75 C-0.04936744 17.82940302 -0.03311587 15.90882471 -0.01367188 13.98828125 C0.02683923 9.3249576 0.02517147 4.6634127 0 0 Z " fill="#CC7F00" transform="translate(556,360)"/>
<path d="M0 0 C2.2109375 0.12109375 2.2109375 0.12109375 5 1 C6.71963459 2.99841494 8.15824696 4.89532948 9.625 7.0625 C17.13115548 17.42402707 28.22397544 25.47120341 41 28 C43.6155346 28.15020927 46.21063003 28.25590689 48.828125 28.31640625 C49.57713074 28.33718735 50.32613647 28.35796844 51.09783936 28.37937927 C53.48180288 28.44457088 55.86587312 28.50361783 58.25 28.5625 C59.86980254 28.60571416 61.48959443 28.64932937 63.109375 28.69335938 C67.07280832 28.80022096 71.0363486 28.90157333 75 29 C75.33 30.98 75.66 32.96 76 35 C64.07382471 43.48593242 50.25366046 44.48534016 36 43 C23.18569706 40.73481801 12.53734978 34.70801502 3 26 C0.10761065 27.32205779 -1.47431288 28.44337943 -3.875 30.6875 C-16.22125834 41.49709957 -32.11265655 44.52700962 -48 45 C-48.73814941 45.02723145 -49.47629883 45.05446289 -50.23681641 45.08251953 C-72.73872575 45.83748969 -94.82180762 42.71621856 -112 27 C-115.38320184 28.52713972 -118.07675677 30.53741636 -121 32.8125 C-139.75060309 46.55796203 -164.83032352 48.04095661 -187.25 45.3125 C-199.74836453 43.19263605 -210.71676333 39.57537305 -221 32 C-221.80824219 31.4121875 -222.61648437 30.824375 -223.44921875 30.21875 C-225.31885305 28.83528587 -227.16816801 27.43292302 -229 26 C-229.51046875 26.50789062 -230.0209375 27.01578125 -230.546875 27.5390625 C-241.97778758 38.36194781 -257.25121333 44.33292432 -273 45 C-273.75152344 45.03996094 -274.50304687 45.07992187 -275.27734375 45.12109375 C-286.48510092 45.42989743 -297.42768501 44.17058321 -307 38 C-307.66 37.34 -308.32 36.68 -309 36 C-308.625 32.875 -308.625 32.875 -308 30 C-306.71706055 30.0314209 -306.71706055 30.0314209 -305.40820312 30.06347656 C-281.68795377 30.56802683 -259.7941639 30.84282725 -241.3125 13.45703125 C-238.20726234 10.15771624 -235.55063202 6.60125053 -232.984375 2.87109375 C-231 1 -231 1 -228.05859375 0.34765625 C-223.85765194 1.24364256 -222.53634425 3.5940536 -220.3125 7 C-210.96118378 20.14644113 -197.64304062 26.71488641 -181.95703125 29.49609375 C-163.5898721 31.83505084 -145.32758486 29.21576733 -130.18359375 17.89453125 C-124.36839387 12.87836647 -119.58812998 7.13886665 -115 1 C-111.78361045 1.30500246 -110.35032061 1.63472668 -108.078125 4.00390625 C-107.47484375 4.84824219 -106.8715625 5.69257812 -106.25 6.5625 C-96.50528577 19.33646996 -84.06860592 26.81983739 -68 29 C-50.23399463 30.43152715 -31.0987013 30.08225109 -16.75 18.125 C-15.35636595 16.89063841 -13.98032843 15.63590714 -12.62890625 14.35546875 C-11 13 -11 13 -9 13 C-8.74476563 12.43796875 -8.48953125 11.8759375 -8.2265625 11.296875 C-6.84307219 8.70613518 -5.20061417 6.54892155 -3.375 4.25 C-2.74335938 3.45078125 -2.11171875 2.6515625 -1.4609375 1.828125 C-0.97882813 1.22484375 -0.49671875 0.6215625 0 0 Z " fill="#0078C3" transform="translate(437,807)"/>
<path d="M0 0 C1.65 0 3.3 0 5 0 C5.2966962 8.96564117 4.36429492 17.68628151 3.25 26.5625 C3.06778451 28.05151489 2.88623876 29.54061188 2.70532227 31.02978516 C2.42390597 33.34421794 2.14184479 35.65855793 1.85719299 37.97259521 C1.19731276 43.33977474 0.56463043 48.70958151 -0.05078125 54.08203125 C-1.77460094 69.09641235 -3.58027927 84.07838886 -6 99 C-4.78376953 98.89171875 -4.78376953 98.89171875 -3.54296875 98.78125 C11.11082559 97.5529925 11.11082559 97.5529925 18 98 C19 99 19 99 19.25 101.4375 C19.1675 102.283125 19.085 103.12875 19 104 C15.77208445 106.1519437 14.71599191 106.20086443 11 106 C10.75378906 106.55558594 10.50757813 107.11117187 10.25390625 107.68359375 C8.75995594 110.44344588 6.94941592 112.65316859 4.9375 115.0625 C4.13957031 116.04992187 3.34164062 117.03734375 2.51953125 118.0546875 C0 121 0 121 -2.48828125 123.3203125 C-10.86116429 131.62467768 -10.82210847 141.28534518 -11.70849609 152.54296875 C-12.22852631 158.71016127 -12.98018849 164.85201896 -13.6875 171 C-14.12966877 174.99949481 -14.56560489 178.99965404 -15 183 C-14.46125244 183.16580566 -13.92250488 183.33161133 -13.36743164 183.50244141 C-7.49334652 185.37643694 -2.00923956 187.75041452 3.5625 190.375 C13.99689086 195.18156928 24.56642489 199.32167705 36 201 C35.67 201.99 35.34 202.98 35 204 C7.61 204 -19.78 204 -48 204 C-42.2941416 194.01474779 -34.98671796 186.28525131 -23.91967773 182.23950195 C-21.78362615 181.14922196 -21.78362615 181.14922196 -21.28637695 178.74438477 C-21.18800537 177.81940186 -21.08963379 176.89441895 -20.98828125 175.94140625 C-20.87033203 174.91466797 -20.75238281 173.88792969 -20.63085938 172.83007812 C-20.47327148 171.21262695 -20.47327148 171.21262695 -20.3125 169.5625 C-20.19583984 168.51900391 -20.07917969 167.47550781 -19.95898438 166.40039062 C-19.72836368 164.30135145 -19.51548252 162.20028794 -19.3203125 160.09765625 C-19.10980208 158.06186648 -18.84042555 156.0311551 -18.5078125 154.01171875 C-17.80718595 149.31944917 -17.35471605 146.0937257 -20.2109375 142.1171875 C-21.22879511 141.00170234 -22.28538048 139.92050015 -23.375 138.875 C-23.92212646 138.31514404 -24.46925293 137.75528809 -25.03295898 137.1784668 C-28.16328462 134.16409606 -30.59165 132.21894091 -35.0625 131.8125 C-36.361875 131.874375 -37.66125 131.93625 -39 132 C-39.99 131.34 -40.98 130.68 -42 130 C-41.67 128.35 -41.34 126.7 -41 125 C-39.02 124.505 -39.02 124.505 -37 124 C-38.03928751 122.64400653 -39.08158787 121.29032221 -40.125 119.9375 C-40.70507812 119.18339844 -41.28515625 118.42929687 -41.8828125 117.65234375 C-42.93082031 116.33943359 -42.93082031 116.33943359 -44 115 C-44.39558105 114.39357666 -44.79116211 113.78715332 -45.19873047 113.16235352 C-47.31954489 110.18842953 -48.83947899 108.30904802 -52.44873047 107.34790039 C-55.27840281 107.08861073 -58.03398391 107.02977827 -60.875 107.0625 C-61.84953125 107.04638672 -62.8240625 107.03027344 -63.828125 107.01367188 C-66.22019166 106.97849442 -68.60793411 106.97482371 -71 107 C-71.625 105.125 -71.625 105.125 -72 103 C-70 101 -70 101 -66.7421875 100.8046875 C-65.46601563 100.82789063 -64.18984375 100.85109375 -62.875 100.875 C-60.95300781 100.90207031 -60.95300781 100.90207031 -58.9921875 100.9296875 C-57.51105469 100.96449219 -57.51105469 100.96449219 -56 101 C-56.28875 100.443125 -56.5775 99.88625 -56.875 99.3125 C-61.58435198 89.63216537 -60.17062067 82.02455813 -57 72 C-55.03044477 67.0801645 -52.53996983 62.96905708 -49 59 C-48.21625 58.071875 -47.4325 57.14375 -46.625 56.1875 C-44 54 -44 54 -41.0625 53.4375 C-33.22555959 54.87693803 -28.88964264 61.19199809 -24 67 C-17.51252693 64.65271429 -12.45333277 61.31001523 -8 56 C-6.22978369 51.45439723 -5.7490876 46.92918481 -5.30224609 42.11181641 C-4.92589164 38.23700714 -4.45852172 34.37608784 -3.98828125 30.51171875 C-3.42924666 25.89881499 -2.87500883 21.28578317 -2.35571289 16.66821289 C-2.27334885 15.93822586 -2.1909848 15.20823883 -2.10612488 14.45613098 C-1.8801886 12.44391437 -1.65657603 10.43143725 -1.43310547 8.41894531 C-1.07221615 5.57007606 -0.61208243 2.80364591 0 0 Z " fill="#CC7E00" transform="translate(414,454)"/>
<path d="M0 0 C5.29877792 4.83801462 8.37370478 11.45588021 9.3515625 18.55078125 C9.49893819 22.85817061 9.03428888 26.25063526 7.4375 30.25 C5.08343456 36.35516972 6.24948097 42.64319428 7 49 C5.1291122 49.67812114 3.25305707 50.3419946 1.375 51 C0.33085937 51.37125 -0.71328125 51.7425 -1.7890625 52.125 C-5.07557154 53.0205937 -7.61379343 53.30099614 -11 53 C-12.670625 52.01 -12.670625 52.01 -14.375 51 C-21.95484711 46.9118291 -32.82446894 48.17724591 -40.875 50.25 C-44.41334686 51.3517607 -47.73803682 52.75391811 -51.125 54.25 C-58.98429514 57.47527678 -65.93461911 54.84317915 -73.84765625 52.765625 C-78.8495508 51.55079063 -83.91293884 50.76666702 -89 50 C-90.16450863 43.9445551 -89.68845604 39.07661411 -88.53515625 33.03515625 C-88.03469746 30.19678778 -87.76370706 27.43505192 -87.5625 24.5625 C-87.1812693 20.66269746 -86.72038305 17.99242136 -84 15 C-79.77301582 12.66166833 -75.6314766 11.65154916 -70.9375 10.5625 C-65.11198468 9.16059918 -60.82246584 7.4805785 -57.171875 2.51171875 C-52.92351126 -1.74998242 -46.35653511 -1.62939426 -40.6875 -2.3125 C-39.4288916 -2.47492188 -38.1702832 -2.63734375 -36.87353516 -2.8046875 C-9.71845858 -6.13393836 -9.71845858 -6.13393836 0 0 Z " fill="#CE8000" transform="translate(459,283)"/>
<path d="M0 0 C3.93992998 1.54718712 5.93723286 4.0456913 8.625 7.25 C16.60441716 16.34223839 26.03598898 21.13049866 38.1159668 22.30224609 C41.37533327 22.43650374 44.61306157 22.46770535 47.875 22.4375 C49.01960693 22.42992676 50.16421387 22.42235352 51.34350586 22.41455078 C64.35492896 22.16049748 75.59651095 19.48874996 85.03515625 9.94140625 C87.59818052 7.07313474 89.86486706 4.2026994 92 1 C95.50941908 1.27378447 96.8119219 1.814413 99.359375 4.328125 C100.54273438 5.77445313 100.54273438 5.77445313 101.75 7.25 C110.55616627 17.45428228 122.40958243 21.65643324 135.75 22.6875 C136.73484375 22.73261719 137.7196875 22.77773438 138.734375 22.82421875 C141 23 141 23 142 24 C142.04080783 25.99958364 142.04254356 28.00045254 142 30 C136.53871927 32.73425711 132.26327564 33.48760969 126.1875 33.375 C124.99229736 33.3586853 124.99229736 33.3586853 123.77294922 33.34204102 C112.38516442 33.03429443 104.5943774 29.01709236 95 23 C94.03513672 23.68835938 94.03513672 23.68835938 93.05078125 24.390625 C86.00288566 29.17635724 79.26929424 32.01499308 71 34 C70.2776416 34.17660156 69.5552832 34.35320313 68.81103516 34.53515625 C49.87653913 38.79266188 26.17584494 37.86137378 8.92578125 28.23828125 C6.46346506 26.65500694 4.17626116 24.95863504 2 23 C-1.18459506 24.09470455 -3.79638907 25.49820239 -6.5625 27.375 C-25.07837037 39.10748609 -51.01649705 37.74212777 -71.6875 33.1875 C-78.12555452 31.3654091 -83.3522294 28.89958766 -88.78125 24.9765625 C-90.99890134 23.72533899 -90.99890134 23.72533899 -93.46875 24.65234375 C-96.02573142 26.0136996 -98.51507131 27.44881559 -101 28.9375 C-110.20949582 34.00706096 -121.84278494 37.04626385 -132.2890625 34.42578125 C-135.79747521 33.22016306 -138.82202294 32.06037291 -141 29 C-140.6875 26.3125 -140.6875 26.3125 -140 24 C-138.13408203 23.85304688 -138.13408203 23.85304688 -136.23046875 23.703125 C-121.40498133 22.42270134 -109.07247197 20.29867024 -98.83984375 8.51171875 C-97.50448924 6.90679735 -96.19536027 5.2794424 -94.921875 3.625 C-93 2 -93 2 -90.55078125 1.92578125 C-87.1568931 3.35506033 -85.72689839 5.31703603 -83.4375 8.1875 C-75.37805479 17.40855916 -65.46544514 21.251265 -53.42285156 22.20385742 C-50.81972173 22.30198148 -48.22988081 22.32913459 -45.625 22.3125 C-44.2486438 22.30512817 -44.2486438 22.30512817 -42.84448242 22.29760742 C-30.1543965 22.07890952 -17.9858803 19.16969865 -8.6875 10.0625 C-5.65379073 6.8195694 -2.7737325 3.46716563 0 0 Z " fill="#0078C2" transform="translate(213,740)"/>
<path d="M0 0 C1.29949081 -0.0033284 2.59898163 -0.0066568 3.93785095 -0.01008606 C6.67854645 -0.01603667 9.41921062 -0.01793035 12.15991211 -0.01733398 C14.93406735 -0.01725299 17.70805654 -0.02415882 20.48217773 -0.0378418 C60.63637843 -0.23276311 60.63637843 -0.23276311 69.27734375 4.16796875 C71.27734375 7.16796875 71.27734375 7.16796875 71.27734375 10.16796875 C64.96121764 10.29388903 58.76965362 10.01756487 52.47900391 9.45581055 C-12.71890632 3.55814253 -12.71890632 3.55814253 -72.09765625 24.35546875 C-88.82135835 40.20995556 -87.52344432 70.36692093 -88.10406494 91.70091248 C-88.16652949 94.12738331 -88.22593668 96.55391677 -88.28515625 98.98046875 C-88.32847459 100.65560678 -88.37209245 102.33073709 -88.41601562 104.00585938 C-88.52167393 108.05981536 -88.6233079 112.11385342 -88.72265625 116.16796875 C-94.59765625 115.29296875 -94.59765625 115.29296875 -95.72265625 114.16796875 C-95.98725705 109.52922762 -95.91684498 104.87609345 -95.91015625 100.23046875 C-95.90988434 99.53590576 -95.90961243 98.84134277 -95.90933228 98.12573242 C-95.80071885 37.65672624 -95.80071885 37.65672624 -78.72265625 20.16796875 C-58.35601647 1.70955468 -26.2252097 0.02373925 0 0 Z " fill="#0079C5" transform="translate(910.72265625,840.83203125)"/>
<path d="M0 0 C1.28148926 0.00491455 2.56297852 0.0098291 3.88330078 0.01489258 C22.44829726 0.2430069 41.05093725 3.15523782 57 13.3125 C57 14.9625 57 16.6125 57 18.3125 C55.23217773 19.41748047 55.23217773 19.41748047 53 20.3125 C51.16040039 19.74267578 51.16040039 19.74267578 49.28515625 18.6328125 C26.58025364 6.13383445 -3.08757106 4.92936224 -27.77246094 11.62792969 C-44.07588837 16.63832102 -56.27666722 28.12526704 -64.1875 43 C-70.01694813 55.48901629 -71.85901498 68.01727238 -73.1875 81.5625 C-73.35237579 83.1485564 -73.51838699 84.7344952 -73.68554688 86.3203125 C-74.13870486 90.64962296 -74.57160641 94.98066914 -75 99.3125 C-75.20430323 101.34897076 -75.40870539 103.38543161 -75.61328125 105.421875 C-75.80470703 107.34773437 -75.80470703 107.34773437 -76 109.3125 C-80.75 110.4375 -80.75 110.4375 -83 109.3125 C-84.4434346 79.42805777 -79.224998 45.68361636 -59.43359375 22.27734375 C-49.344856 11.60119769 -38.29400993 5.46123501 -24 2.3125 C-23.28763184 2.13662354 -22.57526367 1.96074707 -21.84130859 1.77954102 C-14.56107397 0.10846042 -7.44801351 -0.03369921 0 0 Z " fill="#0079C5" transform="translate(905,697.6875)"/>
<path d="M0 0 C17.70018592 5.34639047 27.37178917 19.13829204 35.94921875 34.48828125 C42.13435765 46.33530436 45.79239474 58.5536297 48.8125 71.5 C49.03180176 72.43199219 49.25110352 73.36398437 49.47705078 74.32421875 C50.59725611 79.33666295 51.24688001 83.86489569 51 89 C48.81516155 86.20559847 46.91037098 83.29575184 45.0456543 80.2800293 C37.10263478 67.52114952 28.13459854 56.09072057 14.71484375 48.75 C12.01840532 45.99828151 12.18924457 42.72838043 11.9375 39.0625 C11.78775318 37.51381119 11.6327804 35.96561903 11.47265625 34.41796875 C11.35688232 33.28174072 11.35688232 33.28174072 11.23876953 32.12255859 C10.22156906 23.08008322 7.17057463 15.79106489 2.69287109 7.98583984 C0 3.27613749 0 3.27613749 0 0 Z " fill="#0077C1" transform="translate(925,627)"/>
<path d="M0 0 C0.99 0 1.98 0 3 0 C2.27018606 10.69753587 1.15921571 21.34196822 0 32 C0.53874756 32.16580566 1.07749512 32.33161133 1.63256836 32.50244141 C7.50665348 34.37643694 12.99076044 36.75041452 18.5625 39.375 C28.99689086 44.18156928 39.56642489 48.32167705 51 50 C50.67 50.99 50.34 51.98 50 53 C22.61 53 -4.78 53 -33 53 C-27.31866834 43.0576696 -19.98680033 35.21544134 -8.91748047 31.25488281 C-6.76390897 30.14115255 -6.76390897 30.14115255 -6.30224609 27.63330078 C-6.21023926 26.66376465 -6.11823242 25.69422852 -6.0234375 24.6953125 C-5.91 23.63699219 -5.7965625 22.57867188 -5.6796875 21.48828125 C-5.57914062 20.37839844 -5.47859375 19.26851562 -5.375 18.125 C-5.16027855 15.93944237 -4.9391758 13.75449993 -4.7109375 11.5703125 C-4.62118652 10.59852051 -4.53143555 9.62672852 -4.43896484 8.62548828 C-3.80872397 4.85596084 -2.69318913 2.69318913 0 0 Z " fill="#CB7D00" transform="translate(399,605)"/>
<path d="M0 0 C2.475 0.495 2.475 0.495 5 1 C4.43530059 7.44105828 3.61836453 13.76190703 2.43359375 20.1171875 C2.20203835 21.38152367 2.20203835 21.38152367 1.96580505 22.67140198 C1.46206457 25.40702716 0.95077697 28.14114892 0.4375 30.875 C0.26148254 31.81675079 0.08546509 32.75850159 -0.09588623 33.72879028 C-4.39334367 56.65090106 -8.77473874 79.71664664 -15.3125 102.125 C-15.54275879 102.92478271 -15.77301758 103.72456543 -16.01025391 104.54858398 C-17.62221857 109.74814571 -17.62221857 109.74814571 -21 112 C-23.9375 112 -23.9375 112 -27 111 C-29.375 107.9375 -29.375 107.9375 -31 105 C-30.505 104.01 -30.505 104.01 -30 103 C-27.69 103 -25.38 103 -23 103 C-21.65472325 99.12893398 -20.55208884 95.31687734 -19.703125 91.30859375 C-19.46988525 90.21482422 -19.23664551 89.12105469 -18.99633789 87.99414062 C-18.75004639 86.82044922 -18.50375488 85.64675781 -18.25 84.4375 C-17.98759521 83.19806641 -17.72519043 81.95863281 -17.45483398 80.68164062 C-16.63249442 76.78859532 -15.81586328 72.89440706 -15 69 C-14.7520166 67.82324707 -14.5040332 66.64649414 -14.24853516 65.43408203 C-11.78624266 53.74272804 -9.37809886 42.0442885 -7.13671875 30.30859375 C-6.97941788 29.48767242 -6.822117 28.6667511 -6.66004944 27.82095337 C-5.88520568 23.77467159 -5.11684521 19.72735055 -4.35961914 15.67773438 C-4.07850483 14.20047951 -3.79718361 12.723264 -3.515625 11.24609375 C-3.39189011 10.57138535 -3.26815521 9.89667694 -3.14067078 9.20152283 C-2.49501455 5.84692408 -1.73186014 2.95976205 0 0 Z " fill="#002D4E" transform="translate(744,751)"/>
<path d="M0 0 C-0.59347968 10.72948787 -1.65612523 21.34033317 -3 32 C-3.66 32 -4.32 32 -5 32 C-5.3403125 31.23171875 -5.680625 30.4634375 -6.03125 29.671875 C-9.0189674 25.61711567 -12.73603797 25.30472562 -17.5 24.25 C-19.21881481 23.8388125 -20.93756746 23.42736502 -22.65625 23.015625 C-23.41744141 22.84321289 -24.17863281 22.67080078 -24.96289062 22.49316406 C-27 22 -27 22 -30 21 C-29.54857225 19.22739369 -29.08859477 17.4569632 -28.625 15.6875 C-28.36976563 14.70136719 -28.11453125 13.71523438 -27.8515625 12.69921875 C-27 10 -27 10 -25 7 C-23.9171875 7.4640625 -23.9171875 7.4640625 -22.8125 7.9375 C-19.00224135 9.42453109 -19.00224135 9.42453109 -15 10 C-10.11944758 7.74048499 -6.35483182 4.76984766 -2.3828125 1.171875 C-1 0 -1 0 0 0 Z " fill="#FDC41A" transform="translate(406,519)"/>
<path d="M0 0 C4.17185982 0.64735756 6.36521948 1.92363006 9.625 4.5625 C9.955 5.2225 10.285 5.8825 10.625 6.5625 C12.94656597 6.96979228 15.2818787 7.30688677 17.625 7.5625 C17.955 8.8825 18.285 10.2025 18.625 11.5625 C14 14.5625 14 14.5625 10.625 14.5625 C10.49222656 15.27277344 10.35945313 15.98304688 10.22265625 16.71484375 C9.95775391 18.09349609 9.95775391 18.09349609 9.6875 19.5 C9.42646484 20.87478516 9.42646484 20.87478516 9.16015625 22.27734375 C8.625 24.5625 8.625 24.5625 7.625 25.5625 C6.10571962 25.63429964 4.58332518 25.64642007 3.0625 25.625 C2.23621094 25.61597656 1.40992188 25.60695313 0.55859375 25.59765625 C-0.39853516 25.58025391 -0.39853516 25.58025391 -1.375 25.5625 C-2.035 23.5825 -2.695 21.6025 -3.375 19.5625 C-6.345 19.5625 -9.315 19.5625 -12.375 19.5625 C-12.045 17.9125 -11.715 16.2625 -11.375 14.5625 C-10.055 14.2325 -8.735 13.9025 -7.375 13.5625 C-7.49875 11.7371875 -7.49875 11.7371875 -7.625 9.875 C-7.60802184 6.68876607 -7.34227062 5.49965958 -5.8125 2.5625 C-3.375 0.5625 -3.375 0.5625 0 0 Z " fill="#CC7E00" transform="translate(372.375,480.4375)"/>
<path d="M0 0 C0.66 0 1.32 0 2 0 C2.12297312 10.39806071 1.79772104 20.62962654 1 31 C-4.94 31 -10.88 31 -17 31 C-13.01298095 22.7767732 -8.57573021 14.90518798 -4 7 C-2.66387856 4.66824703 -1.33174338 2.33425844 0 0 Z " fill="#039CE0" transform="translate(665,993)"/>
<path d="M0 0 C3.03577883 1.63465014 4.30888437 3.59169131 5.72265625 6.703125 C7.13506781 11.85881311 6.65846933 17.00923618 6.4375 22.3125 C1.8175 22.3125 -2.8025 22.3125 -7.5625 22.3125 C-7.69798815 19.58166098 -7.79679855 16.85758193 -7.875 14.125 C-7.91689453 13.35607422 -7.95878906 12.58714844 -8.00195312 11.79492188 C-8.09498625 7.45957823 -7.96366648 5.82790595 -5.203125 2.28125 C-2.5625 0.3125 -2.5625 0.3125 0 0 Z " fill="#FDC51B" transform="translate(559.5625,463.6875)"/>
<path d="M0 0 C0.99 0.33 1.98 0.66 3 1 C2.34 1.99 1.68 2.98 1 4 C2.65 4 4.3 4 6 4 C5.319375 4.515625 4.63875 5.03125 3.9375 5.5625 C0.39657527 8.50071413 -2.79109819 11.70787019 -6 15 C-6.99 14.01 -7.98 13.02 -9 12 C-7.68 11.34 -6.36 10.68 -5 10 C-6.98 9.505 -6.98 9.505 -9 9 C-8.34 8.67 -7.68 8.34 -7 8 C-7.33 7.01 -7.66 6.02 -8 5 C-98.09 4.505 -98.09 4.505 -190 4 C-190 3.67 -190 3.34 -190 3 C-189.03294191 2.99668985 -188.06588383 2.99337971 -187.06952095 2.98996925 C-163.56867995 2.9090739 -140.06790488 2.81678895 -116.56715584 2.71247292 C-105.20249918 2.66229236 -93.83784993 2.61585017 -82.47314453 2.578125 C-72.57084754 2.5452449 -62.66860716 2.50543596 -52.76637256 2.45720994 C-47.5203486 2.43190522 -42.27436239 2.41013579 -37.02829361 2.39665604 C-32.09535794 2.38387159 -27.16255148 2.36185672 -22.22968674 2.33261681 C-20.41480146 2.3235126 -18.59989535 2.31784422 -16.7849884 2.31578636 C-14.31574905 2.31248378 -11.84688054 2.29706152 -9.37771606 2.2784729 C-8.65204347 2.28040763 -7.92637087 2.28234237 -7.1787082 2.28433573 C-3.14111205 2.35111351 -3.14111205 2.35111351 0 0 Z " fill="#20ACE7" transform="translate(339,138)"/>
<path d="M0 0 C-1.3056872 30.3056872 -1.3056872 30.3056872 -5 34 C-7.96404505 31.19195732 -10.44499019 28.81684226 -12 25 C-11.360625 24.5875 -10.72125 24.175 -10.0625 23.75 C-7.79009069 21.82189513 -7.39803561 20.88575819 -7 18 C-9.31 17.34 -11.62 16.68 -14 16 C-14 10.94919639 -11.97089736 9.21143782 -8.6875 5.75 C-8.18798828 5.19570313 -7.68847656 4.64140625 -7.17382812 4.0703125 C-3.38923953 0 -3.38923953 0 0 0 Z " fill="#FCC51A" transform="translate(401,561)"/>
<path d="M0 0 C2 0.1875 2 0.1875 4 1 C6.49398079 4.74097119 6.29925803 6.84995522 6.3125 11.3125 C6.32925781 12.60800781 6.34601562 13.90351563 6.36328125 15.23828125 C5.97969424 19.21026284 5.09327754 21.62834614 3 25 C1 26.0625 1 26.0625 -1 26 C-3.48615558 24.15840327 -4.00156904 22.99529289 -5 20 C-5.49118209 13.45405413 -5.84045568 7.61297368 -2 2 C-1.34 1.34 -0.68 0.68 0 0 Z " fill="#042955" transform="translate(709,441)"/>
<path d="M0 0 C3.18251523 2.12167682 4.87267139 3.80900708 7 7 C7.3125 9.5625 7.3125 9.5625 7 12 C3.25816125 14.49455917 1.43756964 14.37606522 -3 14 C-6.98066095 12.42275698 -8.60667274 11.58999089 -11 8 C-11.375 5 -11.375 5 -11 2 C-7.81464317 -1.94984247 -4.59255649 -1.2085675 0 0 Z " fill="#F8C219" transform="translate(322,173)"/>
<path d="M0 0 C0.66 1.32 1.32 2.64 2 4 C0.6875 5.60416667 -0.625 7.20833333 -1.9375 8.8125 C-2.7521875 9.81796875 -3.566875 10.8234375 -4.40625 11.859375 C-6.07180876 13.89981028 -7.77224384 15.86281564 -9.53125 17.828125 C-14.66834792 23.66573627 -17.47183826 28.14572374 -18 36 C-18.66 34.68 -19.32 33.36 -20 32 C-20.99 32.99 -21.98 33.98 -23 35 C-23.25515919 27.47280398 -22.28297723 20.41148455 -21 13 C-20.67 13 -20.34 13 -20 13 C-19.67 15.31 -19.34 17.62 -19 20 C-18.34 17.36 -17.68 14.72 -17 12 C-16.67 12 -16.34 12 -16 12 C-15.67 13.98 -15.34 15.96 -15 18 C-14.33613281 17.20335937 -13.67226563 16.40671875 -12.98828125 15.5859375 C-6.49414062 7.79296875 -6.49414062 7.79296875 0 0 Z " fill="#C77700" transform="translate(421,560)"/>
<path d="M0 0 C1.32 0.66 2.64 1.32 4 2 C3.46696743 7.29834374 0.72954463 11.41828304 -1.875 15.9375 C-2.76937813 17.50846101 -3.66263185 19.08006278 -4.5546875 20.65234375 C-4.97588867 21.39339355 -5.39708984 22.13444336 -5.83105469 22.89794922 C-7.31103301 25.55931375 -8.67184811 28.260137 -10 31 C-11.32 30.34 -12.64 29.68 -14 29 C-12.76878562 21.99746821 -10.56701369 16.68247634 -7 10.5625 C-6.54882812 9.76134766 -6.09765625 8.96019531 -5.6328125 8.13476562 C-2.32298801 2.32298801 -2.32298801 2.32298801 0 0 Z " fill="#0B2854" transform="translate(795,458)"/>
<path d="M0 0 C4.47383738 1.11479227 7.29447445 4.33073219 10.3828125 7.59375 C11.23166016 8.3671875 11.23166016 8.3671875 12.09765625 9.15625 C13.3828125 10.59375 13.3828125 10.59375 13.5703125 13.28125 C13.4775 14.4259375 13.4775 14.4259375 13.3828125 15.59375 C11.60546875 16.33984375 11.60546875 16.33984375 9.3828125 16.59375 C7.62890625 14.94140625 7.62890625 14.94140625 5.8203125 12.65625 C3.32029066 9.93883496 2.09053409 8.72149421 -1.58203125 8.05859375 C-4.30012353 8.09007744 -6.92342202 8.23722222 -9.6171875 8.59375 C-10.203125 6.734375 -10.203125 6.734375 -10.6171875 4.59375 C-7.98639569 0.28881795 -4.72898161 -0.1872864 0 0 Z " fill="#052356" transform="translate(712.6171875,406.40625)"/>
<path d="M0 0 C-0.0625 2.25 -0.0625 2.25 -1 5 C-6.38527442 9.52852621 -11.33570477 9.41500915 -18.20703125 9.3359375 C-21 9 -21 9 -23 7 C-22.625 4.375 -22.625 4.375 -22 2 C-21.35933594 2.03480469 -20.71867188 2.06960938 -20.05859375 2.10546875 C-13.93372998 2.30196794 -13.93372998 2.30196794 -8.1875 0.4375 C-4.77285046 -1.10243999 -3.48230251 -1.1607675 0 0 Z " fill="#052257" transform="translate(716,519)"/>
<path d="M0 0 C4.62 0 9.24 0 14 0 C9.20864554 6.51132785 4.15237653 12.77134927 -1 19 C-2.67666168 15.64667665 -1.53482999 11.98935125 -1.0625 8.375 C-0.96259766 7.57320312 -0.86269531 6.77140625 -0.75976562 5.9453125 C-0.5119582 3.96285309 -0.25668193 1.98132991 0 0 Z " fill="#FCC51B" transform="translate(407,560)"/>
<path d="M0 0 C0.33 0.99 0.66 1.98 1 3 C1.99 3 2.98 3 4 3 C4 10.59 4 18.18 4 26 C2.35 26.33 0.7 26.66 -1 27 C-1.66 26.34 -2.32 25.68 -3 25 C-2.95166016 22.47802734 -2.95166016 22.47802734 -2.5390625 19.3359375 C-2.39726563 18.21445312 -2.25546875 17.09296875 -2.109375 15.9375 C-1.94953125 14.761875 -1.7896875 13.58625 -1.625 12.375 C-1.47289062 11.19164062 -1.32078125 10.00828125 -1.1640625 8.7890625 C-0.78585454 5.85795082 -0.39742456 2.92855776 0 0 Z " fill="#0075BE" transform="translate(825,781)"/>
<path d="M0 0 C2 0 2 0 3.875 1.5625 C5.64285089 3.59032896 6.74657003 5.23329155 8 7.5625 C9.87099688 10.77827588 11.08840683 11.92029059 14 14 C14 14.99 14 15.98 14 17 C14.94978897 19.15028304 14.94978897 19.15028304 16 21 C17.98 20.67 19.96 20.34 22 20 C22 21.65 22 23.3 22 25 C21.34 25 20.68 25 20 25 C20.78668518 26.62741744 21.5795241 28.25186131 22.375 29.875 C22.81585937 30.77992188 23.25671875 31.68484375 23.7109375 32.6171875 C24.90502699 35.09534472 24.90502699 35.09534472 27 37 C27 37.66 27 38.32 27 39 C27.66 39.66 28.32 40.32 29 41 C29.625 43.125 29.625 43.125 30 45 C29.01 45.495 29.01 45.495 28 46 C27.72961914 45.45287354 27.45923828 44.90574707 27.18066406 44.34204102 C20.12687943 30.18569243 12.49672632 16.69141061 2.1484375 4.65234375 C0 2 0 2 0 0 Z " fill="#0C97E9" transform="translate(506,212)"/>
<path d="M0 0 C2.27057377 -0.05398987 4.54151288 -0.09278742 6.8125 -0.125 C8.07707031 -0.14820313 9.34164063 -0.17140625 10.64453125 -0.1953125 C14 0 14 0 17 2 C14.03 6.455 14.03 6.455 11 11 C7.57542133 9.28771067 5.85081765 8.12304686 3.25 5.5 C2.63640625 4.8915625 2.0228125 4.283125 1.390625 3.65625 C0 2 0 2 0 0 Z " fill="#F8BF19" transform="translate(367,560)"/>
<path d="M0 0 C0.66 0.33 1.32 0.66 2 1 C0.515 3.475 0.515 3.475 -1 6 C0.98 5.01 2.96 4.02 5 3 C5.33 3.33 5.66 3.66 6 4 C6.66 2.68 7.32 1.36 8 0 C8.061875 1.8253125 8.061875 1.8253125 8.125 3.6875 C8.53104992 7.21076395 9.29021721 8.71967377 12.0625 10.9375 C13.031875 11.618125 14.00125 12.29875 15 13 C15 13.33 15 13.66 15 14 C13.35 14 11.7 14 10 14 C9.67 13.34 9.34 12.68 9 12 C8.01 11.34 7.02 10.68 6 10 C6 9.34 6 8.68 6 8 C4.68 8.33 3.36 8.66 2 9 C1.65166856 13.87664009 2.58314288 16.77050005 5 21 C4.34 21.33 3.68 21.66 3 22 C-0.35065134 15.96635478 -2.75594461 10.95557853 -3 4 C-2.67 3.01 -2.34 2.02 -2 1 C-1.34 0.67 -0.68 0.34 0 0 Z " fill="#0898E9" transform="translate(662,482)"/>
<path d="M0 0 C0.33 0 0.66 0 1 0 C2.23076923 5.41538462 2.23076923 5.41538462 1.0625 8.375 C0.5365625 9.179375 0.5365625 9.179375 0 10 C-0.66 10 -1.32 10 -2 10 C-4.20450425 16.97700901 -4.20450425 16.97700901 -5 24.1875 C-5 28.24874126 -6.45210208 31.2592467 -8 35 C-8.66 35 -9.32 35 -10 35 C-10 35.99 -10 36.98 -10 38 C-10.66 38 -11.32 38 -12 38 C-12.66 40.97 -13.32 43.94 -14 47 C-14.66 46.67 -15.32 46.34 -16 46 C-13.25906317 36.28303262 -9.76602923 26.85523985 -6.3125 17.375 C-5.6996171 15.6862896 -5.0869848 13.99748824 -4.47460938 12.30859375 C-2.98596094 8.2046743 -1.4939233 4.10200206 0 0 Z " fill="#F3C616" transform="translate(608,915)"/>
<path d="M0 0 C1.65322266 0.01740234 1.65322266 0.01740234 3.33984375 0.03515625 C4.99693359 0.04869141 4.99693359 0.04869141 6.6875 0.0625 C7.54214844 0.07410156 8.39679687 0.08570313 9.27734375 0.09765625 C8.61734375 2.07765625 7.95734375 4.05765625 7.27734375 6.09765625 C8.26734375 6.42765625 9.25734375 6.75765625 10.27734375 7.09765625 C10.27734375 7.42765625 10.27734375 7.75765625 10.27734375 8.09765625 C8.31930868 8.15154712 6.36085466 8.19039842 4.40234375 8.22265625 C3.31179688 8.24585938 2.22125 8.2690625 1.09765625 8.29296875 C-1.72265625 8.09765625 -1.72265625 8.09765625 -3.72265625 6.09765625 C-3.91015625 3.53515625 -3.91015625 3.53515625 -3.72265625 1.09765625 C-2.72265625 0.09765625 -2.72265625 0.09765625 0 0 Z " fill="#092A55" transform="translate(784.72265625,509.90234375)"/>
<path d="M0 0 C-0.33 1.32 -0.66 2.64 -1 4 C-2.093125 3.79375 -3.18625 3.5875 -4.3125 3.375 C-8.0838401 2.59653475 -8.0838401 2.59653475 -11 5 C-14.45087551 5.97274019 -17.97904135 6.58068791 -21.5 7.25 C-22.46292969 7.44851563 -23.42585938 7.64703125 -24.41796875 7.8515625 C-25.80435547 8.11839844 -25.80435547 8.11839844 -27.21875 8.390625 C-28.06373047 8.55594727 -28.90871094 8.72126953 -29.77929688 8.89160156 C-32 9 -32 9 -35 7 C-34.01902344 6.84144531 -33.03804688 6.68289063 -32.02734375 6.51953125 C-23.36232235 5.04435786 -15.34764304 2.9667165 -7.109375 -0.109375 C-4.10566674 -0.96973365 -2.84009441 -1.15290961 0 0 Z " fill="#1399E2" transform="translate(512,753)"/>
<path d="M0 0 C0.66 0 1.32 0 2 0 C2.33 1.32 2.66 2.64 3 4 C3.9075 3.649375 4.815 3.29875 5.75 2.9375 C9 2 9 2 13 3 C6.07 5.31 -0.86 7.62 -8 10 C-7.67 8.68 -7.34 7.36 -7 6 C-7 6.66 -7 7.32 -7 8 C-5.10341027 6.19823976 -3.53821269 4.39827714 -1.9375 2.3125 C-0.9784375 1.1678125 -0.9784375 1.1678125 0 0 Z " fill="#F7CA16" transform="translate(767,602)"/>
<path d="M0 0 C1.32 0 2.64 0 4 0 C2.76595745 20.85106383 2.76595745 20.85106383 -2 28 C-1.67 24.37 -1.34 20.74 -1 17 C-1.66 16.67 -2.32 16.34 -3 16 C-2.01 16 -1.02 16 0 16 C-0.01160156 15.38511719 -0.02320313 14.77023437 -0.03515625 14.13671875 C-0.04417969 13.32847656 -0.05320312 12.52023437 -0.0625 11.6875 C-0.07410156 10.88699219 -0.08570313 10.08648438 -0.09765625 9.26171875 C0 7 0 7 1 4 C0.61067144 1.85744207 0.61067144 1.85744207 0 0 Z " fill="#F6D113" transform="translate(707,854)"/>
<path d="M0 0 C1.1875 3.0625 1.1875 3.0625 2 6 C0.989375 5.319375 -0.02125 4.63875 -1.0625 3.9375 C-4.9632776 1.68124575 -7.60724663 1.85788412 -12 3 C-13.32890384 4.1036623 -13.32890384 4.1036623 -13.125 6.875 C-13.14376866 10.03212413 -13.14376866 10.03212413 -12 13 C-11.34 13.33 -10.68 13.66 -10 14 C-12.16874252 13.49396008 -13.99967627 13.00016187 -16 12 C-16.41454364 7.77165483 -16.46495343 5.66837056 -14 2.125 C-9.5191361 -1.04894526 -5.34830639 -1.7827688 0 0 Z " fill="#0896F0" transform="translate(325,171)"/>
<path d="M0 0 C0.99 0.99 1.98 1.98 3 3 C2.01 3.33 1.02 3.66 0 4 C0 5.65 0 7.3 0 9 C0.66 9 1.32 9 2 9 C2.33 8.34 2.66 7.68 3 7 C3.66 6.67 4.32 6.34 5 6 C5.99 6.99 6.98 7.98 8 9 C6.3125 11.0625 6.3125 11.0625 4 13 C1.25 12.75 1.25 12.75 -1 12 C-1.92470553 7.28400182 -2.22923777 4.32734391 0 0 Z " fill="#119AE1" transform="translate(599,364)"/>
<path d="M0 0 C1.0326802 2.78823655 1.04509293 3.8677274 0.0625 6.75 C-0.288125 7.4925 -0.63875 8.235 -1 9 C-0.34 9.33 0.32 9.66 1 10 C0.01 10 -0.98 10 -2 10 C-2.33 11.65 -2.66 13.3 -3 15 C-2.01 15.33 -1.02 15.66 0 16 C-1.32 16 -2.64 16 -4 16 C-3.67 16.99 -3.34 17.98 -3 19 C-3.66 19 -4.32 19 -5 19 C-5.33 20.98 -5.66 22.96 -6 25 C-6.33 25 -6.66 25 -7 25 C-6.42958936 19.23755617 -5.29316462 14.05983041 -3.5 8.5625 C-3.27441406 7.84384766 -3.04882812 7.12519531 -2.81640625 6.38476562 C-1.14358313 1.14358313 -1.14358313 1.14358313 0 0 Z " fill="#F0C916" transform="translate(591,964)"/>
<path d="M0 0 C0.99 0 1.98 0 3 0 C3.22262303 6.7281627 2.95021536 12.53991163 1 19 C-0.55078125 18.01171875 -0.55078125 18.01171875 -2 16 C-1.89140867 13.15021129 -1.64357584 10.60504992 -1.1875 7.8125 C-1.07857422 7.06291016 -0.96964844 6.31332031 -0.85742188 5.54101562 C-0.58651277 3.69176651 -0.29519943 1.84552739 0 0 Z " fill="#DFBA23" transform="translate(715,448)"/>
<path d="M0 0 C1.33995711 4.01987132 -0.06279803 6.40457706 -1.625 10.125 C-1.89844238 10.79281494 -2.17188477 11.46062988 -2.45361328 12.14868164 C-4.60928973 17.31069668 -7.07593732 22.22575606 -10 27 C-10.33 26.34 -10.66 25.68 -11 25 C-10.22265625 23.16015625 -10.22265625 23.16015625 -9.0625 21.0625 C-7.5451154 18.31063302 -7 17.22211537 -7 14 C-6.34 14 -5.68 14 -5 14 C-5.66 12.02 -6.32 10.04 -7 8 C-6.01 8.33 -5.02 8.66 -4 9 C-2.68 6.03 -1.36 3.06 0 0 Z " fill="#F6CC0E" transform="translate(672,627)"/>
<path d="M0 0 C0.33 0.66 0.66 1.32 1 2 C0.566875 3.051875 0.566875 3.051875 0.125 4.125 C-1.30624915 7.78263671 -1.60300314 11.09619753 -2 15 C-3.32 15 -4.64 15 -6 15 C-6.33 16.32 -6.66 17.64 -7 19 C-7.66 18.67 -8.32 18.34 -9 18 C-7.69100294 15.18585648 -6.37721835 12.37397463 -5.0625 9.5625 C-4.68931641 8.76005859 -4.31613281 7.95761719 -3.93164062 7.13085938 C-3.39506836 5.98520508 -3.39506836 5.98520508 -2.84765625 4.81640625 C-2.51773682 4.10943604 -2.18781738 3.40246582 -1.84790039 2.67407227 C-1 1 -1 1 0 0 Z " fill="#F4C914" transform="translate(327,373)"/>
<path d="M0 0 C4.40287778 1.34532377 6.54758631 3.09430413 9 7 C9.4375 9.6875 9.4375 9.6875 9 12 C5.32653229 14.44897847 3.33643601 14.31537716 -1 14 C-1.66 13.34 -2.32 12.68 -3 12 C-0.03 12 2.94 12 6 12 C5.67 11.01 5.34 10.02 5 9 C5 8.01 5 7.02 5 6 C3.9227279 4.34496905 3.9227279 4.34496905 2.5 2.8125 C1.675 1.884375 0.85 0.95625 0 0 Z " fill="#F7CA0D" transform="translate(320,173)"/>
<path d="M0 0 C4.07376031 1.61010527 6.76507069 4.53822271 9.75 7.625 C10.25660156 8.140625 10.76320313 8.65625 11.28515625 9.1875 C12.52803902 10.45383339 13.76465276 11.7263144 15 13 C14.34 13.66 13.68 14.32 13 15 C4.63371151 7.94975689 4.63371151 7.94975689 2 5 C2 4.34 2 3.68 2 3 C1.34 3 0.68 3 0 3 C0 2.01 0 1.02 0 0 Z " fill="#E8C521" transform="translate(470,176)"/>
<path d="M0 0 C1.44511216 4.49273722 -0.06303623 7.65759057 -1.75 11.875 C-2.14832031 12.91720703 -2.14832031 12.91720703 -2.5546875 13.98046875 C-4.15619122 18.10861668 -5.95378525 22.06781623 -8 26 C-8.33 26 -8.66 26 -9 26 C-9.3732988 21.64484728 -8.27682292 19.64291668 -6 16 C-5.29329272 13.30745009 -5.29329272 13.30745009 -5 11 C-4.34 11 -3.68 11 -3 11 C-2.690625 9.741875 -2.38125 8.48375 -2.0625 7.1875 C-1.46021952 4.73822606 -0.79911359 2.39734077 0 0 Z " fill="#0C95ED" transform="translate(333,352)"/>
<path d="M0 0 C5.08279869 1.27069967 6.91596695 2.8558306 10 7 C11.91667849 8.96355378 13.73169435 10.39328349 16 12 C18.32171592 11.96624167 18.32171592 11.96624167 20 11 C19.34 12.65 18.68 14.3 18 16 C11.61334096 11.45084342 5.62178653 6.47202582 0 1 C0 0.67 0 0.34 0 0 Z " fill="#0D97E8" transform="translate(442,150)"/>
<path d="M0 0 C0.33 0 0.66 0 1 0 C0 8.57142857 0 8.57142857 -1 12 C1.97 12.495 1.97 12.495 5 13 C3.68 14.32 2.36 15.64 1 17 C-0.65 16.01 -2.3 15.02 -4 14 C-3.52188823 12.22888156 -3.0424722 10.45811517 -2.5625 8.6875 C-2.29566406 7.70136719 -2.02882813 6.71523438 -1.75390625 5.69921875 C-1.21920575 3.78482474 -0.62855462 1.88566385 0 0 Z " fill="#EAC71C" transform="translate(701,394)"/>
<path d="M0 0 C0.763125 0.639375 1.52625 1.27875 2.3125 1.9375 C4.88246713 4.14232781 4.88246713 4.14232781 8 5 C9.47666292 8.49029418 9.07164685 12.27436386 9 16 C6.72861652 13.06698229 4.73130058 10.04931207 2.8125 6.875 C2.28269531 6.00617187 1.75289062 5.13734375 1.20703125 4.2421875 C0 2 0 2 0 0 Z " fill="#007ECB" transform="translate(967,700)"/>
<path d="M0 0 C1.65 0 3.3 0 5 0 C5 2.97 5 5.94 5 9 C4.01 9.33 3.02 9.66 2 10 C2 9.34 2 8.68 2 8 C1.01 8 0.02 8 -1 8 C-0.67 5.36 -0.34 2.72 0 0 Z " fill="#003255" transform="translate(724,843)"/>
<path d="M0 0 C0.66 1.32 1.32 2.64 2 4 C2.99 3.67 3.98 3.34 5 3 C5 4.32 5 5.64 5 7 C4.01 7 3.02 7 2 7 C1.67 7.99 1.34 8.98 1 10 C0.03126968 11.35622245 -0.96434215 12.69417053 -2 14 C-2.21192221 8.80790596 -1.5912689 4.873261 0 0 Z " fill="#002A49" transform="translate(740,769)"/>
<path d="M0 0 C0.66 0 1.32 0 2 0 C2 0.99 2 1.98 2 3 C2.66 3 3.32 3 4 3 C3.979375 4.175625 3.95875 5.35125 3.9375 6.5625 C3.93052739 10.47413467 4.35749657 14.14497944 5 18 C2.59881473 15.59881473 2.24779139 13.94503958 1.375 10.6875 C1.11460937 9.74261719 0.85421875 8.79773438 0.5859375 7.82421875 C0.02520352 5.12148098 -0.1101876 2.74968152 0 0 Z " fill="#0994EC" transform="translate(628,412)"/>
<path d="M0 0 C1.65 0 3.3 0 5 0 C5 0.33 5 0.66 5 1 C7.97 1.495 7.97 1.495 11 2 C10.34 3.32 9.68 4.64 9 6 C6.69 6 4.38 6 2 6 C1.34 4.02 0.68 2.04 0 0 Z " fill="#073455" transform="translate(694,521)"/>
<path d="M0 0 C0.33 0.66 0.66 1.32 1 2 C0.0625 4.125 0.0625 4.125 -1 6 C-3.31 5.67 -5.62 5.34 -8 5 C-7.625 3.0625 -7.625 3.0625 -7 1 C-4.53721199 -0.231394 -2.7204945 -0.07159196 0 0 Z " fill="#033153" transform="translate(712,408)"/>
<path d="M0 0 C0.4125 0.45375 0.825 0.9075 1.25 1.375 C3.06408095 3.05950374 4.75285627 3.99265971 7 5 C6.01 5.495 6.01 5.495 5 6 C5.2165625 6.66386719 5.433125 7.32773437 5.65625 8.01171875 C6.07390625 9.33623047 6.07390625 9.33623047 6.5 10.6875 C6.7784375 11.55761719 7.056875 12.42773438 7.34375 13.32421875 C7.99850805 15.99391677 8.11831495 18.26396684 8 21 C5.83373625 17.75060437 4.73136699 14.74326193 3.4375 11.0625 C3.00308594 9.83660156 2.56867187 8.61070312 2.12109375 7.34765625 C1.30043124 4.89710652 0.56157782 2.5176354 0 0 Z " fill="#0B95EE" transform="translate(616,374)"/>
<path d="M0 0 C0.66 0.33 1.32 0.66 2 1 C1.50628906 1.45890625 1.01257813 1.9178125 0.50390625 2.390625 C-0.13675781 3.00421875 -0.77742188 3.6178125 -1.4375 4.25 C-2.07558594 4.85328125 -2.71367188 5.4565625 -3.37109375 6.078125 C-5.10623109 8.1253374 -5.44049776 9.43287209 -6 12 C-7.32467746 12.6837045 -8.65863633 13.34964186 -10 14 C-11.26804566 16.0335948 -11.26804566 16.0335948 -12 18 C-11.45997003 13.91737344 -10.27244293 11.62024558 -7.6875 8.4375 C-7.09324219 7.69371094 -6.49898438 6.94992188 -5.88671875 6.18359375 C-4.01408221 4.01629804 -2.05170924 1.99735932 0 0 Z " fill="#E2F7FC" transform="translate(112,96)"/>
<path d="M0 0 C2.475 0.99 2.475 0.99 5 2 C5 1.34 5 0.68 5 0 C5.7425 0.433125 5.7425 0.433125 6.5 0.875 C9.91752035 2.41288416 13.3506202 3.14847805 17 4 C17 4.33 17 4.66 17 5 C14.95775363 4.88485851 12.91619841 4.75742674 10.875 4.625 C9.73804688 4.55539062 8.60109375 4.48578125 7.4296875 4.4140625 C4.04606384 4.00556124 1.18387559 3.19032431 -2 2 C-1.34 1.34 -0.68 0.68 0 0 Z " fill="#FACA0D" transform="translate(413,754)"/>
<path d="M0 0 C2.09854073 2.09854073 2.88501458 3.67976721 4.0625 6.375 C4.40410156 7.14585937 4.74570312 7.91671875 5.09765625 8.7109375 C5.92068218 10.79878684 6.51546257 12.81208872 7 15 C6.01 15 5.02 15 4 15 C3.4465236 12.92446352 3 11.15634036 3 9 C2.01 9 1.02 9 0 9 C-0.33 8.01 -0.66 7.02 -1 6 C-0.34 6 0.32 6 1 6 C0.67 4.02 0.34 2.04 0 0 Z " fill="#0998EA" transform="translate(697,549)"/>
<path d="M0 0 C1.75 0.125 1.75 0.125 4 1 C8.30808134 6.04660957 9 10.51703026 9 17 C8.34 17 7.68 17 7 17 C6.855625 16.2575 6.71125 15.515 6.5625 14.75 C4.95614359 6.52367203 4.95614359 6.52367203 0 0 Z " fill="#F8C810" transform="translate(611,373)"/>
<path d="M0 0 C0.845625 0.639375 1.69125 1.27875 2.5625 1.9375 C8.32426843 5.32044703 15.49020689 4.83243776 22 5 C22 5.33 22 5.66 22 6 C16.72 6 11.44 6 6 6 C6 6.66 6 7.32 6 8 C5.34 8 4.68 8 4 8 C3.731875 7.360625 3.46375 6.72125 3.1875 6.0625 C2.11332248 3.66868314 2.11332248 3.66868314 -1 3 C-0.67 2.01 -0.34 1.02 0 0 Z " fill="#0596F3" transform="translate(329,158)"/>
<path d="M0 0 C1.16209423 3.48628269 0.88616059 3.86370218 -0.65234375 7.01171875 C-1.01650391 7.76904297 -1.38066406 8.52636719 -1.75585938 9.30664062 C-2.14580078 10.09232422 -2.53574219 10.87800781 -2.9375 11.6875 C-3.32357422 12.48478516 -3.70964844 13.28207031 -4.10742188 14.10351562 C-5.06290602 16.07346443 -6.02732106 18.03849939 -7 20 C-7.33 19.01 -7.66 18.02 -8 17 C-7 15 -6 13 -5 11 C-4.2863276 7.26228166 -4.2863276 7.26228166 -4 4 C-3.34 4 -2.68 4 -2 4 C-1.34 2.68 -0.68 1.36 0 0 Z " fill="#F3CF12" transform="translate(685,948)"/>
<path d="M0 0 C0.66 0 1.32 0 2 0 C2 4.29 2 8.58 2 13 C1.67 13 1.34 13 1 13 C1 11.02 1 9.04 1 7 C-0.98 7 -2.96 7 -5 7 C-4.75 5.125 -4.75 5.125 -4 3 C-1.9375 1.75 -1.9375 1.75 0 1 C0 0.67 0 0.34 0 0 Z " fill="#1C9ECF" transform="translate(693,497)"/>
<path d="M0 0 C3 4 3 4 3 6 C3.66 6.33 4.32 6.66 5 7 C4.01 7.33 3.02 7.66 2 8 C1.67 8.66 1.34 9.32 1 10 C0.67 9.67 0.34 9.34 0 9 C-0.99 9.99 -1.98 10.98 -3 12 C-2.01 8.04 -1.02 4.08 0 0 Z " fill="#ECC521" transform="translate(579,1001)"/>
<path d="M0 0 C-0.83144531 0.39832031 -0.83144531 0.39832031 -1.6796875 0.8046875 C-2.76636719 1.33449219 -2.76636719 1.33449219 -3.875 1.875 C-4.59429688 2.22304688 -5.31359375 2.57109375 -6.0546875 2.9296875 C-8.15135019 3.96557543 -8.15135019 3.96557543 -10 6 C-13.125 5.625 -13.125 5.625 -16 5 C-13.63746991 2.63746991 -11.68772729 1.962152 -8.5625 0.8125 C-7.59441406 0.44769531 -6.62632812 0.08289063 -5.62890625 -0.29296875 C-3 -1 -3 -1 0 0 Z " fill="#0995EC" transform="translate(558,737)"/>
<path d="M0 0 C4.79943196 4.11379882 7.87365811 9.02599182 10 15 C9.67 15.99 9.34 16.98 9 18 C7 17 7 17 6.2890625 15.14453125 C6.06992187 14.37496094 5.85078125 13.60539062 5.625 12.8125 C4.31268313 8.58616669 2.54054346 5.59180282 0 2 C0 1.34 0 0.68 0 0 Z " fill="#0795F3" transform="translate(333,278)"/>
<path d="M0 0 C3.30326989 3.12471476 5.7597192 6.0528386 8 10 C8.66 10.66 9.32 11.32 10 12 C9.67 12.99 9.34 13.98 9 15 C7.67981412 13.25579087 6.36911398 11.50439909 5.0625 9.75 C4.33160156 8.77546875 3.60070312 7.8009375 2.84765625 6.796875 C1.24654921 4.3732119 0.42363762 2.8242508 0 0 Z " fill="#0D95EB" transform="translate(546,278)"/>
<path d="M0 0 C1.4216868 4.26506039 -0.34613318 7.20037743 -1.9375 11.1875 C-2.22818359 11.93708984 -2.51886719 12.68667969 -2.81835938 13.45898438 C-3.53725036 15.30924477 -4.26754653 17.15506648 -5 19 C-6.30094257 15.09717229 -5.96153108 11.97154142 -5 8 C-3.5625 6.3125 -3.5625 6.3125 -2 5 C-0.80972016 2.40084462 -0.80972016 2.40084462 0 0 Z " fill="#0B94EE" transform="translate(601,931)"/>
<path d="M0 0 C0.99 0.33 1.98 0.66 3 1 C2.979375 2.155 2.95875 3.31 2.9375 4.5 C2.92992231 8.74350547 3.40025235 12.80176644 4 17 C1.23775226 14.23775226 1.10483987 11.73686629 0.3125 7.9375 C0.04050781 6.66777344 -0.23148438 5.39804687 -0.51171875 4.08984375 C-0.67285156 3.07019531 -0.83398438 2.05054688 -1 1 C-0.67 0.67 -0.34 0.34 0 0 Z " fill="#0D94E9" transform="translate(676,527)"/>
<path d="M0 0 C0.66 0.33 1.32 0.66 2 1 C2 2.98 2 4.96 2 7 C-0.8125 8.5625 -0.8125 8.5625 -4 10 C-4.99 9.67 -5.98 9.34 -7 9 C-6.21625 8.401875 -5.4325 7.80375 -4.625 7.1875 C-1.85425677 5.08914751 -1.85425677 5.08914751 0 2 C0 1.34 0 0.68 0 0 Z " fill="#EEC31E" transform="translate(717,518)"/>
<path d="M0 0 C-0.33 0.99 -0.66 1.98 -1 3 C-2.0209375 3.12375 -2.0209375 3.12375 -3.0625 3.25 C-5.74928781 3.93598838 -7.35739609 4.71133863 -9.6875 6.125 C-10.780625 6.74375 -11.87375 7.3625 -13 8 C-13.66 7.67 -14.32 7.34 -15 7 C-13.54261898 6.01941648 -12.08406325 5.04057868 -10.625 4.0625 C-9.81289063 3.51722656 -9.00078125 2.97195312 -8.1640625 2.41015625 C-4.88217029 0.27159472 -4.15250434 0 0 0 Z " fill="#F4C912" transform="translate(359,136)"/>
<path d="M0 0 C0.66 0 1.32 0 2 0 C2 0.66 2 1.32 2 2 C3.65 2 5.3 2 7 2 C7.33 3.32 7.66 4.64 8 6 C7.34 6 6.68 6 6 6 C6 6.66 6 7.32 6 8 C5.34 8 4.68 8 4 8 C0 2.58823529 0 2.58823529 0 0 Z " fill="#0599EB" transform="translate(590,334)"/>
<path d="M0 0 C4.69564393 3.31457218 7.72469104 7.36279281 11 12 C7.59263997 10.38331641 4.92428638 8.38560204 2 6 C1.34 5.67 0.68 5.34 0 5 C0 3.35 0 1.7 0 0 Z " fill="#EEC819" transform="translate(495,201)"/>
<path d="M0 0 C3.35447625 1.17859976 5.83924737 2.1189965 8 5 C9.1875 8.1875 9.1875 8.1875 10 11 C8.8944811 10.06409496 7.79064547 9.12620142 6.6875 8.1875 C6.07261719 7.66542969 5.45773437 7.14335937 4.82421875 6.60546875 C1.48047722 3.6626898 1.48047722 3.6626898 0 2 C0 1.34 0 0.68 0 0 Z " fill="#129AE5" transform="translate(486,190)"/>
<path d="M0 0 C1.06546953 3.1964086 1.07427838 5.65747276 1 9 C-0.98 9.99 -0.98 9.99 -3 11 C-4 8 -4 8 -3.22265625 5.95703125 C-2.83980469 5.24933594 -2.45695313 4.54164063 -2.0625 3.8125 C-1.68222656 3.09707031 -1.30195312 2.38164063 -0.91015625 1.64453125 C-0.60980469 1.10183594 -0.30945313 0.55914063 0 0 Z " fill="#0A99E7" transform="translate(671,635)"/>
<path d="M0 0 C2.63520741 2.40502363 4.40302943 5.0185849 6.25 8.0625 C7.06210937 9.37927734 7.06210937 9.37927734 7.890625 10.72265625 C8.25671875 11.47417969 8.6228125 12.22570312 9 13 C8.67 13.66 8.34 14.32 8 15 C6.65511867 13.258859 5.32444855 11.50673385 4 9.75 C3.2575 8.77546875 2.515 7.8009375 1.75 6.796875 C0 4 0 4 0 0 Z " fill="#02244C" transform="translate(707,876)"/>
<path d="M0 0 C3.23861303 1.44424635 5.61969163 3.25772247 8.25 5.625 C8.95640625 6.25664062 9.6628125 6.88828125 10.390625 7.5390625 C10.92171875 8.02117187 11.4528125 8.50328125 12 9 C11.34 9.66 10.68 10.32 10 11 C9.7525 10.38125 9.505 9.7625 9.25 9.125 C7.75212333 6.57860966 6.65917588 6.17316583 4 5 C1.75 3.5 1.75 3.5 0 2 C0 1.34 0 0.68 0 0 Z " fill="#EAC617" transform="translate(452,160)"/>
<path d="M0 0 C0 0.33 0 0.66 0 1 C-1.7015625 1.4021875 -1.7015625 1.4021875 -3.4375 1.8125 C-4.613125 2.204375 -5.78875 2.59625 -7 3 C-7.33 3.99 -7.66 4.98 -8 6 C-6.35 6 -4.7 6 -3 6 C-6 8 -6 8 -8.1875 7.625 C-8.785625 7.41875 -9.38375 7.2125 -10 7 C-9.6875 4.625 -9.6875 4.625 -9 2 C-5.5647952 -0.29013653 -4.014669 -0.17842973 0 0 Z " fill="#051460" transform="translate(712,407)"/>
<path d="M0 0 C0.66 0.33 1.32 0.66 2 1 C0.35 2.98 -1.3 4.96 -3 7 C-1.35 7.33 0.3 7.66 2 8 C2 8.33 2 8.66 2 9 C0.02 9 -1.96 9 -4 9 C-4.33 7.35 -4.66 5.7 -5 4 C-3.35 2.68 -1.7 1.36 0 0 Z " fill="#001E3A" transform="translate(707,631)"/>
<path d="M0 0 C4.2742558 1.5830577 6.26531794 4.50568404 9 8 C6 8 6 8 3.375 5.6875 C1 3 1 3 0 0 Z " fill="#DFC427" transform="translate(567,309)"/>
<path d="M0 0 C2.31 0.33 4.62 0.66 7 1 C6.34 1.66 5.68 2.32 5 3 C5.33 3.66 5.66 4.32 6 5 C4.35 5.33 2.7 5.66 1 6 C0 1.125 0 1.125 0 0 Z " fill="#E4C230" transform="translate(316,259)"/>
<path d="M0 0 C1.18771723 3.42943519 0.80226223 5.37784675 -0.4375 8.75 C-0.72496094 9.54921875 -1.01242187 10.3484375 -1.30859375 11.171875 C-1.53675781 11.77515625 -1.76492188 12.3784375 -2 13 C-3.32 12.34 -4.64 11.68 -6 11 C-5.04867188 10.64808594 -5.04867188 10.64808594 -4.078125 10.2890625 C-1.81749261 9.17709092 -1.81749261 9.17709092 -1.171875 6.8359375 C-0.96304687 5.61777344 -0.96304687 5.61777344 -0.75 4.375 C-0.60046875 3.55773437 -0.4509375 2.74046875 -0.296875 1.8984375 C-0.19890625 1.27195313 -0.1009375 0.64546875 0 0 Z " fill="#0A95EF" transform="translate(374,245)"/>
<path d="M0 0 C0.66 0 1.32 0 2 0 C2 2.31 2 4.62 2 7 C1.01 7.495 1.01 7.495 0 8 C-0.66 7.67 -1.32 7.34 -2 7 C-1.125 2.25 -1.125 2.25 0 0 Z " fill="#029CEC" transform="translate(665,993)"/>
<path d="M0 0 C2.25 -0.3125 2.25 -0.3125 5 0 C7.3125 2.5 7.3125 2.5 9 5 C8.01 5.33 7.02 5.66 6 6 C5.67 5.34 5.34 4.68 5 4 C4.01 4.495 4.01 4.495 3 5 C2.67 4.01 2.34 3.02 2 2 C1.34 1.34 0.68 0.68 0 0 Z " fill="#159CDC" transform="translate(325,273)"/>
<path d="M0 0 C2.64 0 5.28 0 8 0 C8 0.99 8 1.98 8 3 C8.66 3 9.32 3 10 3 C10 3.66 10 4.32 10 5 C8.51800098 4.55090939 7.03944764 4.09043436 5.5625 3.625 C4.73878906 3.36976563 3.91507813 3.11453125 3.06640625 2.8515625 C1 2 1 2 0 0 Z " fill="#0D6DCE" transform="translate(637,833)"/>
<path d="M0 0 C-0.66 0.66 -1.32 1.32 -2 2 C-1.34 2.66 -0.68 3.32 0 4 C-7.75 3.25 -7.75 3.25 -10 1 C-6.52674819 -0.1577506 -3.63932552 -0.06866652 0 0 Z " fill="#FBCF1F" transform="translate(587,569)"/>
<path d="M0 0 C1.65 0 3.3 0 5 0 C5 2.31 5 4.62 5 7 C4.67 7 4.34 7 4 7 C3.67 5.35 3.34 3.7 3 2 C2.34 4.31 1.68 6.62 1 9 C0.67 9 0.34 9 0 9 C0 6.03 0 3.06 0 0 Z " fill="#C27100" transform="translate(414,454)"/>
<path d="M0 0 C1.65 0.33 3.3 0.66 5 1 C5 2.65 5 4.3 5 6 C2.525 5.01 2.525 5.01 0 4 C0 2.68 0 1.36 0 0 Z " fill="#0D3151" transform="translate(721,416)"/>
<path d="M0 0 C2.475 0.99 2.475 0.99 5 2 C5 3.65 5 5.3 5 7 C4.01 6.34 3.02 5.68 2 5 C1.01 5 0.02 5 -1 5 C-0.67 3.35 -0.34 1.7 0 0 Z " fill="#F7CE17" transform="translate(697,408)"/>
<path d="M0 0 C1.32 0.33 2.64 0.66 4 1 C2.35 4.3 0.7 7.6 -1 11 C-2.41687119 6.74938644 -1.19320039 4.28148375 0 0 Z " fill="#0996EE" transform="translate(320,379)"/>
<path d="M0 0 C0.33 0 0.66 0 1 0 C1.99 3.3 2.98 6.6 4 10 C0 8 0 8 -2 6 C-1.64644564 3.73725212 -1.02455574 2.04911148 0 0 Z " fill="#F9C80C" transform="translate(596,368)"/>
<path d="M0 0 C0.33 0.66 0.66 1.32 1 2 C0.22265625 3.9453125 0.22265625 3.9453125 -0.9375 6.125 C-1.31777344 6.84945313 -1.69804687 7.57390625 -2.08984375 8.3203125 C-2.39019531 8.87460937 -2.69054687 9.42890625 -3 10 C-3.33 10 -3.66 10 -4 10 C-4.125 6.625 -4.125 6.625 -4 3 C-2 1 -2 1 0 0 Z " fill="#0495F0" transform="translate(340,338)"/>
<path d="M0 0 C0.66 0 1.32 0 2 0 C2.18175781 0.84884766 2.18175781 0.84884766 2.3671875 1.71484375 C2.53476562 2.44832031 2.70234375 3.18179688 2.875 3.9375 C3.03742188 4.66839844 3.19984375 5.39929688 3.3671875 6.15234375 C3.82961523 8.20700294 3.82961523 8.20700294 6 9 C3.83125748 8.49396008 2.00032373 8.00016187 0 7 C0 4.69 0 2.38 0 0 Z " fill="#129BE6" transform="translate(309,176)"/>
<path d="M0 0 C0.33 0.99 0.66 1.98 1 3 C0.01 3 -0.98 3 -2 3 C-2.33 2.67 -2.66 2.34 -3 2 C-4.68183948 1.76712992 -6.3712416 1.58735834 -8.0625 1.4375 C-9.44115234 1.31181641 -9.44115234 1.31181641 -10.84765625 1.18359375 C-11.91306641 1.09271484 -11.91306641 1.09271484 -13 1 C-13 0.67 -13 0.34 -13 0 C-8.37078475 -1.0161692 -4.65537393 -0.83796731 0 0 Z " fill="#E1C423" transform="translate(377,160)"/>
<path d="M0 0 C0.99 0.66 1.98 1.32 3 2 C1.63016497 5.16115776 1.0109362 5.9927092 -2 8 C-2.66 7.01 -3.32 6.02 -4 5 C-2.68 4.34 -1.36 3.68 0 3 C0 2.01 0 1.02 0 0 Z " fill="#119DDE" transform="translate(334,145)"/>
<path d="M0 0 C0.66 0 1.32 0 2 0 C0.18690997 3.77727089 -1.9073259 7.37269822 -4 11 C-4.66 10.67 -5.32 10.34 -6 10 C-5.05065487 8.32819726 -4.09026687 6.66266064 -3.125 5 C-2.59132813 4.071875 -2.05765625 3.14375 -1.5078125 2.1875 C-1.01023437 1.465625 -0.51265625 0.74375 0 0 Z " fill="#0B95EF" transform="translate(663,652)"/>
<path d="M0 0 C0.66 0.33 1.32 0.66 2 1 C2 1.99 2 2.98 2 4 C3.93897879 6.67398476 3.93897879 6.67398476 6 9 C5.67 9.66 5.34 10.32 5 11 C3.96409662 9.93106782 2.94666058 8.84421512 1.9375 7.75 C1.36902344 7.14671875 0.80054688 6.5434375 0.21484375 5.921875 C-1 4 -1 4 -0.68359375 1.765625 C-0.45800781 1.18296875 -0.23242188 0.6003125 0 0 Z " fill="#0A97EB" transform="translate(582,320)"/>
<path d="M0 0 C1.2077558 3.62326739 0.54311128 4.64146369 -1 8 C-1.66 7.67 -2.32 7.34 -3 7 C-3.1875 4.625 -3.1875 4.625 -3 2 C-2.01 1.34 -1.02 0.68 0 0 Z " fill="#0697ED" transform="translate(574,1015)"/>
<path d="M0 0 C0.66 0 1.32 0 2 0 C3.0257259 4.41062136 3.03684712 6.92630576 1 11 C-0.24879091 8.50241818 -0.06609416 6.77595477 0 4 C0 2.68 0 1.36 0 0 Z " fill="#0698E5" transform="translate(612,888)"/>
<path d="M0 0 C0.33 0.66 0.66 1.32 1 2 C2.32 2 3.64 2 5 2 C5 2.66 5 3.32 5 4 C1.52674819 5.1577506 -1.36067448 5.06866652 -5 5 C-4.360625 4.54625 -3.72125 4.0925 -3.0625 3.625 C-0.90297594 2.16078274 -0.90297594 2.16078274 0 0 Z " fill="#F8CC0F" transform="translate(487,754)"/>
<path d="M0 0 C-2.97 2.475 -2.97 2.475 -6 5 C-6 4.01 -6 3.02 -6 2 C-6.99 1.67 -7.98 1.34 -9 1 C-5.57367167 -0.61798838 -3.61944899 -1.34053666 0 0 Z " fill="#FCCE1F" transform="translate(548,577)"/>
<path d="M0 0 C0.33 0 0.66 0 1 0 C1.33 2.64 1.66 5.28 2 8 C0 8 -2 8 -4 8 C-3.67 7.01 -3.34 6.02 -3 5 C-2.01 5.33 -1.02 5.66 0 6 C0 4.02 0 2.04 0 0 Z " fill="#179DDB" transform="translate(317,448)"/>
<path d="M0 0 C0.99 0.33 1.98 0.66 3 1 C2.67 3.97 2.34 6.94 2 10 C-0.39119721 7.60880279 -0.59712795 6.30355083 -1 3 C-0.67 2.01 -0.34 1.02 0 0 Z " fill="#129FD7" transform="translate(313,434)"/>
<path d="M0 0 C1.98 0 3.96 0 6 0 C6 2.31 6 4.62 6 7 C1.125 2.25 1.125 2.25 0 0 Z " fill="#089BEB" transform="translate(573,313)"/>
<path d="M0 0 C0.33 0 0.66 0 1 0 C1.33 2.31 1.66 4.62 2 7 C1.34 7 0.68 7 0 7 C0 8.65 0 10.3 0 12 C-0.33 12 -0.66 12 -1 12 C-1.02687279 10.18757948 -1.04633715 8.37504767 -1.0625 6.5625 C-1.07410156 5.55316406 -1.08570313 4.54382813 -1.09765625 3.50390625 C-1 1 -1 1 0 0 Z " fill="#DCF5FC" transform="translate(678,98)"/>
<path d="M0 0 C2.01822917 0.06510417 4.03645833 0.13020833 6.0546875 0.1953125 C5.7246875 1.1853125 5.3946875 2.1753125 5.0546875 3.1953125 C2.0846875 2.8653125 -0.8853125 2.5353125 -3.9453125 2.1953125 C-1.9453125 0.1953125 -1.9453125 0.1953125 0 0 Z " fill="#0396E8" transform="translate(528.9453125,745.8046875)"/>
<path d="M0 0 C1.65 0.33 3.3 0.66 5 1 C2.64722731 3.72426311 0.37503669 4.8141763 -3 6 C-3 5.34 -3 4.68 -3 4 C-2.34 3.67 -1.68 3.34 -1 3 C-0.67 2.01 -0.34 1.02 0 0 Z " fill="#F2C816" transform="translate(593,715)"/>
<path d="M0 0 C0.99 0.66 1.98 1.32 3 2 C2.01 2.66 1.02 3.32 0 4 C-1.19232613 6.05003955 -1.19232613 6.05003955 -2 8 C-2.99 7.34 -3.98 6.68 -5 6 C-3.35 4.02 -1.7 2.04 0 0 Z " fill="#EEC719" transform="translate(369,263)"/>
<path d="M0 0 C-0.33 2.64 -0.66 5.28 -1 8 C-1.99 7.34 -2.98 6.68 -4 6 C-3.625 3.5625 -3.625 3.5625 -3 1 C-1 0 -1 0 0 0 Z " fill="#002845" transform="translate(734,826)"/>
<path d="M0 0 C1.32 0.33 2.64 0.66 4 1 C3.67 2.32 3.34 3.64 3 5 C1.02 4.34 -0.96 3.68 -3 3 C-2.01 2.67 -1.02 2.34 0 2 C0 1.34 0 0.68 0 0 Z " fill="#EEC11F" transform="translate(391,745)"/>
<path d="M0 0 C1.485 0.99 1.485 0.99 3 2 C1.25 5.875 1.25 5.875 -1 7 C-1.04254356 5.00045254 -1.04080783 2.99958364 -1 1 C-0.67 0.67 -0.34 0.34 0 0 Z " fill="#F1C31D" transform="translate(632,686)"/>
<path d="M0 0 C0.66 0.99 1.32 1.98 2 3 C2.66 3 3.32 3 4 3 C4.33 3.99 4.66 4.98 5 6 C2.36 6 -0.28 6 -3 6 C-2.01 5.67 -1.02 5.34 0 5 C0 3.35 0 1.7 0 0 Z " fill="#137DC5" transform="translate(758,608)"/>
<path d="M0 0 C1.10844919 3.32534757 0.84454356 5.62182575 0 9 C-0.66 9 -1.32 9 -2 9 C-2.6875 6.75 -2.6875 6.75 -3 4 C-1.5625 1.6875 -1.5625 1.6875 0 0 Z " fill="#F6CB10" transform="translate(678,605)"/>
<path d="M0 0 C-0.33 1.65 -0.66 3.3 -1 5 C-3.97 4.505 -3.97 4.505 -7 4 C-6.67 3.01 -6.34 2.02 -6 1 C-4 0 -4 0 0 0 Z " fill="#0C9BDC" transform="translate(616,369)"/>
<path d="M0 0 C2.79872437 2.52788007 4.45773019 4.20411134 5 8 C4.01 8 3.02 8 2 8 C1.34 5.36 0.68 2.72 0 0 Z " fill="#ECC91A" transform="translate(590,336)"/>
<path d="M0 0 C3.36720387 1.39332574 4.9859524 2.9789286 7 6 C4 6 4 6 1.8125 4.125 C0 2 0 2 0 0 Z " fill="#DEC528" transform="translate(478,184)"/>
<path d="M0 0 C1.65 0 3.3 0 5 0 C5.33 1.32 5.66 2.64 6 4 C4.02 4 2.04 4 0 4 C0 2.68 0 1.36 0 0 Z " fill="#F3C01D" transform="translate(330,155)"/>
<path d="M0 0 C0.33 0.66 0.66 1.32 1 2 C1.99 2.33 2.98 2.66 4 3 C2 5 2 5 -1.125 5.125 C-2.548125 5.063125 -2.548125 5.063125 -4 5 C-3.67 4.34 -3.34 3.68 -3 3 C-2.34 3 -1.68 3 -1 3 C-0.67 2.01 -0.34 1.02 0 0 Z " fill="#F5C225" transform="translate(778,600)"/>
<path d="M0 0 C0.99 0 1.98 0 3 0 C3.33 1.98 3.66 3.96 4 6 C2.68 5.67 1.36 5.34 0 5 C0 3.35 0 1.7 0 0 Z " fill="#061D5A" transform="translate(781,511)"/>
<path d="M0 0 C0.66 0.33 1.32 0.66 2 1 C1.67 2.32 1.34 3.64 1 5 C-0.65 4.67 -2.3 4.34 -4 4 C-2.68 2.68 -1.36 1.36 0 0 Z " fill="#EEC31D" transform="translate(343,143)"/>
</svg>
